<?xml version="1.0" encoding="UTF-8" standalone="no"?>
<svg
   xmlns:dc="http://purl.org/dc/elements/1.1/"
   xmlns:cc="http://creativecommons.org/ns#"
   xmlns:rdf="http://www.w3.org/1999/02/22-rdf-syntax-ns#"
   xmlns:svg="http://www.w3.org/2000/svg"
   xmlns="http://www.w3.org/2000/svg"
   xmlns:sodipodi="http://sodipodi.sourceforge.net/DTD/sodipodi-0.dtd"
   xmlns:inkscape="http://www.inkscape.org/namespaces/inkscape"
   id="Warstwa_1"
   data-name="Warstwa 1"
   viewBox="0 0 187.62 155.69999"
   version="1.1"
   sodipodi:docname="kapkap-logo-white.svg"
   width="187.62"
   height="155.7"
   inkscape:version="0.92.2 5c3e80d, 2017-08-06">
  <metadata
     id="metadata29">
    <rdf:RDF>
      <cc:Work
         rdf:about="">
        <dc:format>image/svg+xml</dc:format>
        <dc:type
           rdf:resource="http://purl.org/dc/dcmitype/StillImage" />
      </cc:Work>
    </rdf:RDF>
  </metadata>
  <sodipodi:namedview
     pagecolor="#ffffff"
     bordercolor="#666666"
     borderopacity="1"
     objecttolerance="10"
     gridtolerance="10"
     guidetolerance="10"
     inkscape:pageopacity="0"
     inkscape:pageshadow="2"
     inkscape:window-width="640"
     inkscape:window-height="480"
     id="namedview27"
     showgrid="false"
     inkscape:zoom="0.84843255"
     inkscape:cx="93.794998"
     inkscape:cy="78.119998"
     inkscape:window-x="0"
     inkscape:window-y="0"
     inkscape:window-maximized="0"
     inkscape:current-layer="Warstwa_1" />
  <defs
     id="defs4">
    <style
       id="style2">.cls-1{fill:#fff;}</style>
  </defs>
  <path
     class="cls-1"
     d="m 0,83.67 h 14.1 v 31.5 L 39.87,83.67 H 57.6 L 27,119.02 58.71,155.7 H 40.49 L 14.06,123.32 V 155.7 H 0 Z"
     id="path6"
     inkscape:connector-curvature="0"
     style="fill:#ffffff" />
  <path
     class="cls-1"
     d="M 61,113.5 C 61,94.23 72,82.22 92.39,82.22 112.78,82.22 124,94.25 124,113.5 v 42.2 H 109.9 V 134.11 H 74.76 V 155.7 H 61 Z m 48.9,7.82 v -7.82 c 0,-11.57 -5.72,-18.17 -17.62,-18.17 -11.9,0 -17.51,6.6 -17.51,18.17 v 7.82 z"
     id="path8"
     inkscape:connector-curvature="0"
     style="fill:#ffffff" />
  <path
     class="cls-1"
     d="m 131.13,83.67 h 29.4 c 18.72,0 27.09,10.35 27.09,24.45 0,14.1 -8.37,24.45 -27.09,24.45 h -15.31 v 23.13 h -14.09 z m 29.62,35.91 c 9.36,0 12.56,-4.85 12.56,-11.46 0,-6.61 -3.2,-11.34 -12.56,-11.34 h -15.53 v 22.8 z"
     id="path10"
     inkscape:connector-curvature="0"
     style="fill:#ffffff" />
  <path
     class="cls-1"
     d="M 33.56,36.68 60.76,1.43 h -22 L 17.8,30.84 V 1.43 H 0 v 72 H 17.8 V 43.17 L 39.29,73.5 H 61 v -1.14 z"
     id="path12"
     inkscape:connector-curvature="0"
     style="fill:#ffffff" />
  <path
     class="cls-1"
     d="m 106.59,53.95 v 2.31 c 0.07,-0.75 0.1,-1.51 0.1,-2.27 z"
     id="path14"
     inkscape:connector-curvature="0"
     style="fill:#ffffff" />
  <path
     class="cls-1"
     d="M 90,29.56 A 0.42,0.42 0 0 0 89.86,29.5 c 0,-0.38 0,-0.74 0,-1.12 0.02,0.41 0.06,0.79 0.14,1.18 z"
     id="path16"
     inkscape:connector-curvature="0"
     style="fill:#ffffff" />
  <path
     class="cls-1"
     d="m 106.69,53.99 c 0,0.76 0,1.52 -0.1,2.27 0,0 0,0.06 0,0.09 v -2.4 0 z"
     id="path18"
     inkscape:connector-curvature="0"
     style="fill:#ffffff" />
  <path
     class="cls-1"
     d="M 124.43,31.61 V 73.5 H 98 c 0.35,-0.31 0.69,-0.63 1,-1 a 26.2,26.2 0 0 0 7.56,-16.16 c 0,0 0,-0.06 0,-0.09 0.07,-0.74 0.1,-1.5 0.1,-2.27 h -0.1 v 0 a 20.44,20.44 0 0 1 -2.19,-1 A 26.15,26.15 0 0 1 89.83,29.5 v 0 a 0.42,0.42 0 0 1 0.14,0.06 17.45,17.45 0 0 0 15,15.1 13.79,13.79 0 0 0 1.6,0.14 v -7.24 0 -6 c 0,-9.53 -4,-14.69 -13,-15.06 a 1.61,1.61 0 0 0 -0.31,0 c -0.26,0 -0.52,0 -0.78,0 -8.38,0 -12.82,3.87 -13.86,11.33 a 26.17,26.17 0 0 0 -0.25,3.76 V 73.5 H 61 V 31.61 C 61,12.01 72.13,0 92.61,0 c 7,0 12.89,1.38 17.65,4 a 25.78,25.78 0 0 1 12.21,14.72 c 0,0 0,0 0,0 a 37.2,37.2 0 0 1 1.61,7.15 42.47,42.47 0 0 1 0.34,4.88 v 0 c 0.01,0.3 0.01,0.57 0.01,0.86 z"
     id="path20"
     inkscape:connector-curvature="0"
     style="fill:#ffffff" />
  <path
     class="cls-1"
     d="m 187.62,26.81 c 0,14.63 -8.68,25.38 -28.12,25.38 h -7.35 c 0,0 0,-0.07 0,-0.09 a 5.9,5.9 0 0 1 0.06,-0.59 c 0,-0.26 0.05,-0.51 0.09,-0.76 0.04,-0.25 0.06,-0.48 0.11,-0.72 0.05,-0.24 0.11,-0.65 0.17,-1 0,-0.15 0.07,-0.3 0.1,-0.45 l 0.21,-0.87 a 24.72,24.72 0 0 1 0.75,-2.4 c 0.12,-0.31 0.23,-0.61 0.36,-0.9 0.13,-0.29 0.25,-0.6 0.38,-0.89 0.13,-0.29 0.24,-0.53 0.37,-0.79 l 0.33,-0.64 c 0.19,-0.39 0.4,-0.75 0.62,-1.11 l 0.34,-0.56 c 0.31,-0.49 0.64,-1 1,-1.45 a 12.91,12.91 0 0 0 1.53,-0.29 17.34,17.34 0 0 0 11.78,-9.34 11.69,11.69 0 0 0 0.53,-1.21 l 0.16,-0.43 c 0.43,-1.08 -0.53,-1.3 -1.78,-1.3 -0.85,0 -1.83,0.1 -2.63,0.1 a 8.51,8.51 0 0 1 -1,0.06 8.61,8.61 0 0 1 -6.12,-2.52 6.48,6.48 0 0 0 -0.6,-0.68 v 0 a 8.71,8.71 0 0 0 -3.7,-2.17 8.67,8.67 0 0 0 -6.7,0.77 8.71,8.71 0 0 0 -4.51,7.54 8.38,8.38 0 0 0 0.18,1.75 c 0,0.16 0.06,0.31 0.1,0.47 a 8.38,8.38 0 0 1 0.18,1.75 8.85,8.85 0 0 1 -0.26,2.15 8.05,8.05 0 0 1 -0.54,1.49 8.76,8.76 0 0 1 -1.76,2.54 8.61,8.61 0 0 1 -1.59,1.22 v 0 c -0.09,0.06 -0.19,0.1 -0.28,0.15 -0.09,0.05 -0.28,0.16 -0.43,0.23 a 7.42,7.42 0 0 1 -0.86,0.37 l -0.22,0.08 a 8.37,8.37 0 0 1 -2.85,0.51 c -1.39,0 -2.88,0.07 -4.27,0 V 1.43 h 28.1 c 19.44,0 28.12,10.75 28.12,25.38 z"
     id="path22"
     inkscape:connector-curvature="0"
     style="fill:#ffffff" />
  <path
     class="cls-1"
     d="M 153.58,73.5 H 131.5 a 17.42,17.42 0 0 1 -0.15,-2.3 17,17 0 0 1 0.42,-3.81 17.4,17.4 0 0 1 4.7,-8.54 c 0.26,-0.26 0.53,-0.51 0.8,-0.75 a 17,17 0 0 1 6.34,-3.55 14.06,14.06 0 0 1 1.66,-0.45 2.26,2.26 0 0 0 0,0.26 26,26 0 0 0 4.26,14.31 25.13,25.13 0 0 0 4.05,4.83 z"
     id="path24"
     inkscape:connector-curvature="0"
     style="fill:#ffffff" />
</svg>
