<svg width="26" height="27" viewBox="0 0 26 27" fill="none" xmlns="http://www.w3.org/2000/svg">
    <path
        d="M1.21729 20.565L8.19103 14.1724C8.67742 13.7265 9.42025 13.7142 9.92124 14.1436L18.1738 21.2172"
        stroke="white" stroke-width="2" stroke-linecap="round" stroke-linejoin="round" />
    <path
        d="M15.5652 17.9566L18.6783 14.8434C19.1373 14.3845 19.8639 14.3328 20.3832 14.7223L24.6956 17.9566"
        stroke="white" stroke-width="2" stroke-linecap="round" stroke-linejoin="round" />
    <path
        d="M17.7918 3.99072C17.2825 3.48134 16.4566 3.48134 15.9472 3.99072C15.4378 4.50008 15.4378 5.32599 15.9472 5.83534L17.7918 3.99072ZM19.4782 7.52172L18.5559 8.44403C19.0653 8.95344 19.8912 8.95344 20.4005 8.44403L19.4782 7.52172ZM25.6179 3.22665C26.1273 2.71728 26.1273 1.89141 25.6179 1.38203C25.1086 0.872655 24.2827 0.872655 23.7733 1.38203L25.6179 3.22665ZM15.9472 5.83534L18.5559 8.44403L20.4005 6.59942L17.7918 3.99072L15.9472 5.83534ZM20.4005 8.44403L25.6179 3.22665L23.7733 1.38203L18.5559 6.59942L20.4005 8.44403Z"
        fill="white" />
    <path
        d="M24.9131 11.2172V24.3476C24.9131 24.8998 24.4654 25.3476 23.9131 25.3476H2.0001C1.44782 25.3476 1.0001 24.8998 1.0001 24.3476V2.43457C1.0001 1.88229 1.44782 1.43457 2.0001 1.43457H13.5001"
        stroke="white" stroke-width="2" stroke-linecap="round" />
</svg>