<svg width="28" height="23" viewBox="0 0 28 23" fill="none" xmlns="http://www.w3.org/2000/svg">
    <path
        d="M25.4357 1.00001H9.78656C9.58169 0.999436 9.37872 1.03922 9.18924 1.11709C8.99975 1.19497 8.82746 1.3094 8.6822 1.45385C8.53694 1.59831 8.42155 1.76996 8.34263 1.95902C8.2637 2.14807 8.22279 2.35081 8.22222 2.55567V14.9996C8.22222 18.4373 11.0244 21.2222 14.481 21.2222H20.7412C24.1978 21.2222 27 18.4359 27 14.9996V2.55567C26.9994 2.35081 26.9585 2.14807 26.8796 1.95902C26.8007 1.76996 26.6853 1.59831 26.54 1.45385C26.3948 1.3094 26.2225 1.19497 26.033 1.11709C25.8435 1.03922 25.6405 0.999436 25.4357 1.00001M8.22222 5.33334H4.61111C2.61778 5.33334 1 6.84278 1 8.70323V12.0746C1 13.935 2.61778 15.4445 4.61111 15.4445H8.22222"
        stroke="white" stroke-width="2" stroke-linecap="round" stroke-linejoin="round" />
</svg>