<svg width="27" height="28" viewBox="0 0 27 28" fill="none" xmlns="http://www.w3.org/2000/svg">
    <path
        d="M26.9972 26.9599C26.4693 21.701 22.6333 17.3623 17.4964 15.8545C20.3461 14.4673 22.2974 11.6427 22.2974 8.3837C22.2974 3.75337 18.3592 0 13.5008 0C8.64247 0 4.70426 3.75337 4.70426 8.3837C4.70426 11.6427 6.65554 14.4678 9.50527 15.8545C4.36837 17.3623 0.533147 21.701 0.00449434 26.9599C-0.008673 27.0916 0.00716959 27.2244 0.0510066 27.3499C0.0948437 27.4753 0.165707 27.5907 0.259055 27.6886C0.352402 27.7864 0.466175 27.8646 0.593076 27.9181C0.719976 27.9716 0.857206 27.9992 0.995967 27.9992C1.24354 27.9994 1.48229 27.9116 1.66559 27.753C1.84888 27.5944 1.96355 27.3764 1.98719 27.1415C2.09759 26.0308 2.38605 24.9428 2.84251 23.9155C3.72918 21.9203 5.21275 20.2182 7.10807 19.0216C9.00339 17.825 11.2265 17.1869 13.5 17.1869C15.7734 17.1869 17.9965 17.825 19.8919 19.0216C21.7872 20.2182 23.2707 21.9203 24.1574 23.9155C24.6139 24.9428 24.9023 26.0308 25.0125 27.1415C25.0378 27.3921 25.1664 27.6229 25.3702 27.7831C25.4712 27.8624 25.5875 27.922 25.7125 27.9585C25.8376 27.9949 25.969 28.0076 26.0992 27.9956C26.2294 27.9837 26.3559 27.9475 26.4714 27.889C26.5869 27.8305 26.6892 27.7509 26.7724 27.6547C26.8556 27.5585 26.9181 27.4477 26.9564 27.3284C26.9947 27.2092 27.0079 27.084 26.9954 26.9599H26.9972ZM13.5016 14.8685C11.8217 14.8659 10.2028 14.2688 8.95866 13.193C7.71456 12.1172 6.93404 10.6394 6.76847 9.0462C6.60291 7.45298 7.0641 5.85795 8.0626 4.57046C9.0611 3.28298 10.5257 2.39481 12.1724 2.07825C13.8191 1.76168 15.5305 2.03926 16.9746 2.85717C18.4187 3.67507 19.4926 4.97499 19.988 6.50479C20.4834 8.03459 20.365 9.68524 19.6558 11.1366C18.9466 12.5879 17.697 13.7364 16.1496 14.3594C15.3119 14.6972 14.4112 14.8704 13.5016 14.8685Z"
        fill="#31A745" />
</svg>