<svg xmlns="http://www.w3.org/2000/svg" width="39.55" height="35.342" viewBox="0 0 39.55 35.342"><g transform="translate(0 -122.553)"><path d="M27.348,128.023H26.086v-4.839a.631.631,0,0,0-.631-.631h-5.89a.631.631,0,0,0,0,1.262h5.259v4.839a.631.631,0,0,0,.631.631h1.893a10.939,10.939,0,1,1,0,21.878H25.455a.631.631,0,0,0-.631.631v2.945a1.9,1.9,0,0,1-1.893,1.893H3.156a1.9,1.9,0,0,1-1.893-1.893V123.815H17.04a.631.631,0,0,0,0-1.262H.631a.631.631,0,0,0-.631.631V154.74A3.159,3.159,0,0,0,3.156,157.9H22.93a3.159,3.159,0,0,0,3.156-3.156v-2.314h1.262a12.2,12.2,0,1,0,0-24.4Z" transform="translate(0 0)"/><path d="M384.758,276.947h1.893a8.836,8.836,0,0,0,0-17.671h-1.893a.631.631,0,0,0-.631.631v16.409A.631.631,0,0,0,384.758,276.947Zm.631-16.409h1.262a7.573,7.573,0,1,1,0,15.147h-1.262Z" transform="translate(-359.303 -127.887)"/><path d="M101.516,588.064a.631.631,0,1,1-.631.631A.631.631,0,0,1,101.516,588.064Z" transform="translate(-94.365 -435.428)"/><path d="M62.452,549a.631.631,0,1,1-.631.631A.631.631,0,0,1,62.452,549Z" transform="translate(-57.826 -398.888)"/></g></svg>