<svg xmlns="http://www.w3.org/2000/svg" width="40.523" height="34.406" viewBox="0 0 40.523 34.406"><g transform="translate(0 -38.644)"><path d="M14.617,227.37H13.2a.594.594,0,1,1,0-1.187h1.42a1.439,1.439,0,0,0,0-2.877H12.493a.594.594,0,0,1-.594-.594V210.886a.594.594,0,0,1,.594-.594h3.622a.594.594,0,0,1,.594.594v1.5a1.439,1.439,0,0,0,2.877,0v-3.529a1.44,1.44,0,0,0-1.439-1.439H2.626a1.44,1.44,0,0,0-1.439,1.439v3.529a1.439,1.439,0,1,0,2.877,0v-1.5a.594.594,0,0,1,.594-.594H8.429a.594.594,0,0,1,.594.594v11.826a.594.594,0,0,1-.594.594H6.49a1.439,1.439,0,1,0,0,2.877h4.333a.594.594,0,1,1,0,1.187H6.49a2.626,2.626,0,1,1,0-5.252H7.835V211.48H5.252v.9a2.626,2.626,0,1,1-5.252,0v-3.529a2.629,2.629,0,0,1,2.626-2.626H18.147a2.629,2.629,0,0,1,2.626,2.626v3.529a2.626,2.626,0,0,1-5.252,0v-.9H13.087v10.639h1.53a2.626,2.626,0,0,1,0,5.252Z" transform="translate(0 -154.32)"/><path d="M178.717,73.05h-7.545a3.1,3.1,0,0,1,0-6.194h.562V44.838h-4.569v1.25a3.1,3.1,0,1,1-6.194,0V41.741a3.1,3.1,0,0,1,3.1-3.1h1.967a.594.594,0,0,1,0,1.187h-1.967a1.912,1.912,0,0,0-1.91,1.91v4.348a1.91,1.91,0,1,0,3.82,0V44.245a.594.594,0,0,1,.594-.594h5.756a.594.594,0,0,1,.594.594v23.2a.594.594,0,0,1-.594.594h-1.155a1.91,1.91,0,0,0,0,3.82h7.545a1.91,1.91,0,0,0,0-3.82h-1.382a.594.594,0,0,1-.594-.594v-23.2a.594.594,0,0,1,.594-.594h5.819a.594.594,0,0,1,.594.594v1.844a1.91,1.91,0,0,0,3.82,0V41.741a1.912,1.912,0,0,0-1.91-1.91H168.41a.594.594,0,1,1,0-1.187h17.247a3.1,3.1,0,0,1,3.1,3.1v4.348a3.1,3.1,0,1,1-6.194,0v-1.25h-4.632V66.856h.789a3.1,3.1,0,0,1,0,6.194Z" transform="translate(-148.231 0)"/></g></svg>