<svg xmlns="http://www.w3.org/2000/svg" width="40.523" height="35.085" viewBox="0 0 40.523 35.085"><g transform="translate(-0.002 -0.931)"><path d="M366.808,50.019a4.086,4.086,0,1,0,4.086,4.086A4.091,4.091,0,0,0,366.808,50.019Zm0,6.983a2.9,2.9,0,1,1,2.9-2.9A2.9,2.9,0,0,1,366.808,57Z" transform="translate(-333.956 -45.195)"/><path d="M37.492.931H7.385A3.036,3.036,0,0,0,4.353,3.964V5.456H3.035A3.036,3.036,0,0,0,0,8.489V32.983a3.036,3.036,0,0,0,3.033,3.033H22.96a.595.595,0,1,0,0-1.189H3.035a1.846,1.846,0,0,1-1.844-1.844V8.489A1.846,1.846,0,0,1,3.035,6.646H4.353V28.458A3.036,3.036,0,0,0,7.385,31.49h27.6v1.492a1.846,1.846,0,0,1-1.843,1.844H26.727a.595.595,0,1,0,0,1.189h6.415a3.036,3.036,0,0,0,3.033-3.033V31.49h1.318a3.036,3.036,0,0,0,3.033-3.033V3.964A3.036,3.036,0,0,0,37.492.931Zm1.844,22.314L31.408,14.31a.991.991,0,0,0-1.442-.043L25.05,19.181l-6.5-7.324a.994.994,0,0,0-.712-.333.984.984,0,0,0-.73.29L12.5,16.42a.595.595,0,1,0,.841.841L17.8,12.8l8.446,9.519a.595.595,0,0,0,.89-.79l-1.3-1.462,4.817-4.815,8.678,9.78v3.421A1.846,1.846,0,0,1,37.492,30.3H7.385a1.846,1.846,0,0,1-1.843-1.844v-3.4l5.23-5.227a.595.595,0,1,0-.841-.842L5.542,23.376V3.964A1.846,1.846,0,0,1,7.385,2.12H37.492a1.846,1.846,0,0,1,1.844,1.843Z"/></g></svg>