<svg xmlns="http://www.w3.org/2000/svg" width="18.931" height="18.836" viewBox="0 0 18.931 18.836"><path d="M17.472,49.367a.471.471,0,0,0-.471.471v4.186a1.416,1.416,0,0,1-1.414,1.414H2.357A1.416,1.416,0,0,1,.943,54.024V41.738a1.416,1.416,0,0,1,1.414-1.414H6.543a.471.471,0,1,0,0-.943H2.357A2.36,2.36,0,0,0,0,41.738V54.025a2.36,2.36,0,0,0,2.357,2.357H15.586a2.36,2.36,0,0,0,2.357-2.357V49.838A.471.471,0,0,0,17.472,49.367Z" transform="translate(0 -37.546)"/><path d="M120.7,1.141a2.122,2.122,0,0,0-3,0l-8.411,8.411a.471.471,0,0,0-.121.208l-1.106,3.993a.471.471,0,0,0,.58.58l3.993-1.106a.472.472,0,0,0,.208-.121L121.258,4.7a2.124,2.124,0,0,0,0-3ZM110.32,9.859,117.2,2.975l2.22,2.22-6.884,6.884Zm-.443.89,1.774,1.774-2.454.68Zm10.715-6.721-.5.5-2.22-2.22.5-.5a1.179,1.179,0,0,1,1.667,0l.553.553A1.18,1.18,0,0,1,120.591,4.028Z" transform="translate(-102.948 -0.52)"/></svg>