<svg xmlns="http://www.w3.org/2000/svg" width="14.662" height="18.053" viewBox="0 0 14.662 18.053"><path d="M222.821,154.7a.423.423,0,0,0-.423.423v7.991a.423.423,0,0,0,.846,0v-7.991A.423.423,0,0,0,222.821,154.7Z" transform="translate(-212.995 -148.162)"/><path d="M104.821,154.7a.423.423,0,0,0-.423.423v7.991a.423.423,0,0,0,.846,0v-7.991A.423.423,0,0,0,104.821,154.7Z" transform="translate(-99.984 -148.162)"/><path d="M1.2,5.373V15.79a2.333,2.333,0,0,0,.62,1.609,2.082,2.082,0,0,0,1.511.653h8a2.081,2.081,0,0,0,1.511-.653,2.332,2.332,0,0,0,.62-1.609V5.373A1.615,1.615,0,0,0,13.044,2.2H10.879V1.669A1.661,1.661,0,0,0,9.2,0H5.451a1.661,1.661,0,0,0-1.674,1.67V2.2H1.612A1.615,1.615,0,0,0,1.2,5.373Zm10.13,11.833h-8A1.339,1.339,0,0,1,2.043,15.79V5.41h10.57V15.79A1.339,1.339,0,0,1,11.327,17.206ZM4.622,1.669A.815.815,0,0,1,5.451.844H9.2a.815.815,0,0,1,.829.824V2.2H4.622ZM1.612,3.043H13.044a.761.761,0,1,1,0,1.522H1.612a.761.761,0,1,1,0-1.522Z" transform="translate(0.003 0.001)"/><path d="M163.821,154.7a.423.423,0,0,0-.423.423v7.991a.423.423,0,0,0,.846,0v-7.991A.423.423,0,0,0,163.821,154.7Z" transform="translate(-156.49 -148.162)"/></svg>