<svg xmlns="http://www.w3.org/2000/svg" width="31.902" height="34.029" viewBox="0 0 31.902 34.029"><defs><style>.a{fill:#56585b;}</style></defs><g transform="translate(-19.125 -90)"><g transform="translate(19.125 90)"><path class="a" d="M45.046,112.066a5.977,5.977,0,0,0-4.811,2.431l-9.389-4.8a5.982,5.982,0,0,0-.195-3.93l9.84-5.912a5.957,5.957,0,1,0-1.023-1.711L29.6,104.072a5.981,5.981,0,1,0,.367,7.418l9.362,4.784a5.982,5.982,0,1,0,5.713-4.208Zm0-20.072a3.988,3.988,0,1,1-3.988,3.988A3.992,3.992,0,0,1,45.046,91.994ZM25.107,112a3.988,3.988,0,1,1,3.988-3.988A3.992,3.992,0,0,1,25.107,112Zm19.939,10.036a3.988,3.988,0,1,1,3.988-3.988A3.992,3.992,0,0,1,45.046,122.035Z" transform="translate(-19.125 -90)"/></g></g></svg>