<svg width="104" height="58" viewBox="0 0 104 58" fill="none" xmlns="http://www.w3.org/2000/svg">
<mask id="mask0_132_7204" style="mask-type:alpha" maskUnits="userSpaceOnUse" x="-54" y="0" width="158" height="103">
<g opacity="0.4">
<path d="M-53.6461 58.5168V53.9719L-0.114635 0.455078H4.43025L-53.6461 58.5168Z" fill="white"/>
<path d="M-53.6461 74.9568V70.4412L16.3253 0.455078H20.8702L-53.6461 74.9568Z" fill="white"/>
<path d="M-53.6461 91.4297V86.8811L32.7689 0.455078H37.3138L-53.6461 91.4297Z" fill="white"/>
<path d="M-48.3905 102.614H-52.9354L49.2238 0.455078H53.754L-48.3905 102.614Z" fill="white"/>
<path d="M-31.9512 102.614H-36.4961L65.6778 0.455078H70.208L-31.9512 102.614Z" fill="white"/>
<path d="M-15.507 102.614H-20.0555L82.1183 0.455078H86.6668L-15.507 102.614Z" fill="white"/>
<path d="M0.932823 102.614H-3.58276L98.5618 0.455078H103.107L0.932823 102.614Z" fill="white"/>
<path d="M17.4022 102.614H12.8573L103.799 11.6582V16.2031L17.4022 102.614Z" fill="white"/>
<path d="M33.8457 102.615H29.2971L103.799 28.1133V32.6472L33.8457 102.615Z" fill="white"/>
<path d="M50.2856 102.615H45.7407L103.799 44.5713V49.1015L50.2856 102.615Z" fill="white"/>
</g>
</mask>
<g mask="url(#mask0_132_7204)">
<rect x="-10.9111" y="-4.22217" width="127.081" height="107.4" fill="white"/>
</g>
</svg>
