<svg width="73" height="69" viewBox="0 0 73 69" fill="none" xmlns="http://www.w3.org/2000/svg">
<path d="M62.5185 3.6859C62.5185 1.79866 60.9886 0.26876 59.1014 0.26876C57.2142 0.26876 55.6842 1.79866 55.6842 3.6859C55.6842 5.57313 57.2142 7.10303 59.1014 7.10303C60.9886 7.10303 62.5185 5.57313 62.5185 3.6859Z" fill="white"/>
<path d="M62.5185 34.617C62.5185 33.7107 62.1585 32.8416 61.5176 32.2008C60.8768 31.5599 60.0076 31.1999 59.1013 31.1999C58.6525 31.1995 58.2079 31.2876 57.7931 31.4591C57.3784 31.6307 57.0015 31.8824 56.6841 32.1998C56.3667 32.5172 56.115 32.8941 55.9434 33.3089C55.7719 33.7236 55.6838 34.1682 55.6842 34.617C55.6842 35.5233 56.0442 36.3925 56.6851 37.0333C57.3259 37.6741 58.1951 38.0342 59.1013 38.0342C60.0074 38.0333 60.876 37.673 61.5167 37.0323C62.1573 36.3917 62.5176 35.523 62.5185 34.617Z" fill="white"/>
<path d="M62.5185 65.5448C62.5185 63.6575 60.9886 62.1276 59.1014 62.1276C57.2142 62.1276 55.6842 63.6575 55.6842 65.5448C55.6842 67.432 57.2142 68.9619 59.1014 68.9619C60.9886 68.9619 62.5185 67.432 62.5185 65.5448Z" fill="white"/>
<path d="M34.8573 3.6859C34.8573 1.79866 33.3274 0.26876 31.4401 0.26876C29.5529 0.26876 28.0229 1.79866 28.0229 3.6859C28.0229 5.57313 29.5529 7.10303 31.4401 7.10303C33.3274 7.10303 34.8573 5.57313 34.8573 3.6859Z" fill="white"/>
<path d="M34.8572 34.617C34.8572 34.1683 34.7688 33.724 34.5971 33.3094C34.4254 32.8948 34.1737 32.5181 33.8564 32.2008C33.5391 31.8835 33.1624 31.6317 32.7478 31.46C32.3332 31.2883 31.8888 31.1999 31.4401 31.1999C30.9912 31.1995 30.5467 31.2876 30.1319 31.4591C29.7171 31.6307 29.3402 31.8824 29.0228 32.1998C28.7054 32.5172 28.4538 32.8941 28.2822 33.3089C28.1106 33.7236 28.0225 34.1682 28.023 34.617C28.023 35.5233 28.383 36.3925 29.0238 37.0333C29.6646 37.6741 30.5338 38.0342 31.4401 38.0342C32.3461 38.0333 33.2148 37.673 33.8554 37.0323C34.4961 36.3917 34.8564 35.523 34.8572 34.617Z" fill="white"/>
<path d="M34.8573 65.5448C34.8573 63.6575 33.3274 62.1276 31.4401 62.1276C29.5529 62.1276 28.0229 63.6575 28.0229 65.5448C28.0229 67.432 29.5529 68.9619 31.4401 68.9619C33.3274 68.9619 34.8573 67.432 34.8573 65.5448Z" fill="white"/>
<path d="M7.1965 3.6859C7.1965 1.79866 5.66661 0.26876 3.77938 0.26876C1.89215 0.26876 0.362183 1.79866 0.362183 3.6859C0.362183 5.57313 1.89215 7.10303 3.77938 7.10303C5.66661 7.10303 7.1965 5.57313 7.1965 3.6859Z" fill="white"/>
<path d="M7.19643 34.617C7.19644 34.168 7.10794 33.7234 6.93601 33.3086C6.76408 32.8938 6.51208 32.517 6.19442 32.1996C5.87676 31.8823 5.49967 31.6306 5.08471 31.4591C4.66975 31.2876 4.22504 31.1995 3.77602 31.1999C2.86974 31.1999 2.00058 31.5599 1.35974 32.2008C0.718904 32.8416 0.358887 33.7107 0.358887 34.617C0.359753 35.523 0.72005 36.3917 1.3607 37.0323C2.00135 37.673 2.87001 38.0333 3.77602 38.0342C4.6826 38.0342 5.55211 37.6742 6.19346 37.0335C6.83482 36.3928 7.19557 35.5236 7.19643 34.617Z" fill="white"/>
<path d="M7.1965 65.5448C7.1965 63.6575 5.66661 62.1276 3.77938 62.1276C1.89215 62.1276 0.362183 63.6575 0.362183 65.5448C0.362183 67.432 1.89215 68.9619 3.77938 68.9619C5.66661 68.9619 7.1965 67.432 7.1965 65.5448Z" fill="white"/>
</svg>
