<svg width="91" height="39" viewBox="0 0 91 39" fill="none" xmlns="http://www.w3.org/2000/svg">
<path d="M90.8903 3.92053C90.8903 2.03156 89.359 0.500245 87.47 0.500245C85.5811 0.500245 84.0497 2.03156 84.0497 3.92053C84.0497 5.80951 85.5811 7.34082 87.47 7.34082C89.359 7.34082 90.8903 5.80951 90.8903 3.92053Z" fill="white"/>
<path d="M90.8905 34.88C90.8909 34.4307 90.8027 33.9858 90.631 33.5706C90.4593 33.1554 90.2073 32.7782 89.8896 32.4606C89.572 32.1429 89.1947 31.8909 88.7796 31.7192C88.3644 31.5474 87.9195 31.4593 87.4702 31.4597C86.5651 31.4623 85.698 31.8239 85.0592 32.4651C84.4204 33.1064 84.0621 33.9749 84.063 34.88C84.063 35.7871 84.4233 36.6571 85.0648 37.2985C85.7062 37.9399 86.5762 38.3003 87.4833 38.3003C88.3881 38.2968 89.2547 37.9349 89.8933 37.2939C90.5319 36.6528 90.8905 35.7848 90.8905 34.88Z" fill="white"/>
<path d="M63.2035 3.92053C63.2035 2.03156 61.6722 0.500245 59.7833 0.500245C57.8943 0.500245 56.3629 2.03156 56.3629 3.92053C56.3629 5.80951 57.8943 7.34082 59.7833 7.34082C61.6722 7.34082 63.2035 5.80951 63.2035 3.92053Z" fill="white"/>
<path d="M63.2035 34.88C63.2035 33.9729 62.8431 33.1029 62.2017 32.4615C61.5603 31.8201 60.6903 31.4597 59.7832 31.4597C59.3339 31.4593 58.889 31.5474 58.4738 31.7192C58.0586 31.8909 57.6814 32.1429 57.3637 32.4606C57.046 32.7782 56.7941 33.1554 56.6224 33.5706C56.4507 33.9858 56.3625 34.4307 56.3629 34.88C56.3629 35.7871 56.7233 36.6571 57.3647 37.2985C58.0061 37.9399 58.8761 38.3003 59.7832 38.3003C60.6901 38.2994 61.5595 37.9388 62.2007 37.2975C62.842 36.6563 63.2026 35.7868 63.2035 34.88Z" fill="white"/>
<path d="M35.5168 3.92053C35.5168 2.03156 33.9855 0.500245 32.0965 0.500245C30.2075 0.500245 28.6761 2.03156 28.6761 3.92053C28.6761 5.80951 30.2075 7.34082 32.0965 7.34082C33.9855 7.34082 35.5168 5.80951 35.5168 3.92053Z" fill="white"/>
<path d="M35.5167 34.88C35.5167 34.4308 35.4283 33.9861 35.2564 33.5711C35.0845 33.1562 34.8326 32.7791 34.515 32.4615C34.1973 32.1439 33.8203 31.8919 33.4053 31.7201C32.9904 31.5482 32.5456 31.4597 32.0964 31.4597C31.6472 31.4593 31.2022 31.5474 30.787 31.7192C30.3719 31.8909 29.9947 32.1429 29.677 32.4606C29.3593 32.7782 29.1073 33.1554 28.9356 33.5706C28.7639 33.9858 28.6757 34.4307 28.6761 34.88C28.6761 35.7871 29.0365 36.6571 29.6779 37.2985C30.3194 37.9399 31.1893 38.3003 32.0964 38.3003C33.0033 38.2994 33.8728 37.9388 34.514 37.2975C35.1552 36.6563 35.5159 35.7868 35.5167 34.88Z" fill="white"/>
<path d="M7.83049 3.92053C7.83049 2.03156 6.29919 0.500245 4.41022 0.500245C2.52124 0.500245 0.989868 2.03156 0.989868 3.92053C0.989868 5.80951 2.52124 7.34082 4.41022 7.34082C6.29919 7.34082 7.83049 5.80951 7.83049 3.92053Z" fill="white"/>
<path d="M7.83031 34.88C7.83031 34.4305 7.74173 33.9855 7.56964 33.5704C7.39755 33.1552 7.14532 32.778 6.82737 32.4604C6.50942 32.1427 6.13198 31.8908 5.71664 31.7191C5.30129 31.5474 4.85617 31.4593 4.40674 31.4597C3.49962 31.4597 2.62966 31.8201 1.98823 32.4615C1.3468 33.1029 0.98645 33.9729 0.98645 34.88C0.987318 35.7868 1.34795 36.6563 1.98919 37.2975C2.63043 37.9388 3.49989 38.2994 4.40674 38.3003C5.31416 38.3003 6.18446 37.94 6.82641 37.2987C7.46836 36.6574 7.82944 35.7874 7.83031 34.88Z" fill="white"/>
</svg>
