<svg width="239" height="214" viewBox="0 0 239 214" fill="none" xmlns="http://www.w3.org/2000/svg">
<path d="M233.691 132C235.03 131.999 236.315 131.466 237.262 130.519C238.209 129.572 238.742 128.288 238.743 126.948C238.743 126.285 238.613 125.628 238.359 125.015C238.105 124.402 237.733 123.845 237.263 123.376C236.794 122.907 236.237 122.534 235.624 122.281C235.011 122.027 234.354 121.896 233.691 121.896C232.354 121.901 231.074 122.436 230.131 123.383C229.188 124.329 228.658 125.612 228.658 126.948C228.659 128.284 229.19 129.566 230.133 130.512C231.076 131.459 232.355 131.994 233.691 132Z" fill="#31A745"/>
<path d="M187.96 132C190.751 132 193.012 129.738 193.012 126.948C193.012 124.158 190.751 121.896 187.96 121.896C185.17 121.896 182.908 124.158 182.908 126.948C182.908 129.738 185.17 132 187.96 132Z" fill="#31A745"/>
<path d="M142.234 132C143.573 131.999 144.858 131.466 145.805 130.519C146.752 129.572 147.285 128.288 147.286 126.948C147.286 126.285 147.155 125.628 146.902 125.015C146.648 124.402 146.275 123.845 145.806 123.376C145.337 122.907 144.78 122.534 144.167 122.281C143.554 122.027 142.897 121.896 142.234 121.896C140.896 121.899 139.614 122.432 138.669 123.379C137.725 124.327 137.195 125.61 137.196 126.948C137.196 128.286 137.727 129.568 138.671 130.515C139.615 131.462 140.896 131.996 142.234 132Z" fill="#31A745"/>
<path d="M96.5082 132C99.2984 132 101.56 129.738 101.56 126.948C101.56 124.158 99.2984 121.896 96.5082 121.896C93.718 121.896 91.4561 124.158 91.4561 126.948C91.4561 129.738 93.718 132 96.5082 132Z" fill="#31A745"/>
<path d="M50.7782 132C53.5684 132 55.8304 129.738 55.8304 126.948C55.8304 124.158 53.5684 121.896 50.7782 121.896C47.988 121.896 45.7261 124.158 45.7261 126.948C45.7261 129.738 47.988 132 50.7782 132Z" fill="#31A745"/>
<path d="M5.05215 132C7.84237 132 10.1043 129.738 10.1043 126.948C10.1043 124.158 7.84237 121.896 5.05215 121.896C2.26192 121.896 0 124.158 0 126.948C0 129.738 2.26192 132 5.05215 132Z" fill="#31A745"/>
<path d="M233.691 91.1043C235.03 91.103 236.315 90.5703 237.262 89.6231C238.209 88.676 238.742 87.3917 238.743 86.0521C238.743 84.7122 238.211 83.4272 237.263 82.4797C236.316 81.5323 235.031 81 233.691 81C232.354 81.0051 231.074 81.5397 230.131 82.4866C229.188 83.4335 228.658 84.7156 228.658 86.0521C228.659 87.3883 229.19 88.6697 230.133 89.6163C231.076 90.5629 232.355 91.0979 233.691 91.1043Z" fill="#31A745"/>
<path d="M187.96 91.1042C190.751 91.1042 193.012 88.8423 193.012 86.0521C193.012 83.2619 190.751 81 187.96 81C185.17 81 182.908 83.2619 182.908 86.0521C182.908 88.8423 185.17 91.1042 187.96 91.1042Z" fill="#31A745"/>
<path d="M142.234 91.1043C143.573 91.103 144.858 90.5703 145.805 89.6231C146.752 88.676 147.285 87.3917 147.286 86.0521C147.286 84.7122 146.754 83.4272 145.806 82.4797C144.859 81.5323 143.574 81 142.234 81C140.896 81.0026 139.614 81.5361 138.669 82.4835C137.725 83.4308 137.195 84.7144 137.196 86.0521C137.196 87.3895 137.727 88.6724 138.671 89.6194C139.615 90.5665 140.896 91.1004 142.234 91.1043Z" fill="#31A745"/>
<path d="M96.5082 91.1042C99.2984 91.1042 101.56 88.8423 101.56 86.0521C101.56 83.2619 99.2984 81 96.5082 81C93.718 81 91.4561 83.2619 91.4561 86.0521C91.4561 88.8423 93.718 91.1042 96.5082 91.1042Z" fill="#31A745"/>
<path d="M50.7782 91.1042C53.5684 91.1042 55.8304 88.8423 55.8304 86.0521C55.8304 83.2619 53.5684 81 50.7782 81C47.988 81 45.7261 83.2619 45.7261 86.0521C45.7261 88.8423 47.988 91.1042 50.7782 91.1042Z" fill="#31A745"/>
<path d="M5.05215 91.1042C7.84237 91.1042 10.1043 88.8423 10.1043 86.0521C10.1043 83.2619 7.84237 81 5.05215 81C2.26192 81 0 83.2619 0 86.0521C0 88.8423 2.26192 91.1042 5.05215 91.1042Z" fill="#31A745"/>
<path d="M233.691 51.0003C235.03 50.999 236.315 50.4663 237.262 49.5191C238.209 48.5719 238.742 47.2877 238.743 45.9481C238.743 45.2847 238.613 44.6277 238.359 44.0148C238.105 43.4018 237.733 42.8449 237.263 42.3757C236.794 41.9066 236.237 41.5345 235.624 41.2806C235.011 41.0267 234.354 40.896 233.691 40.896C232.354 40.9011 231.074 41.4356 230.131 42.3826C229.188 43.3295 228.658 44.6116 228.658 45.9481C228.659 47.2843 229.19 48.5657 230.133 49.5123C231.076 50.4589 232.355 50.9939 233.691 51.0003Z" fill="#31A745"/>
<path d="M187.96 51.0002C190.751 51.0002 193.012 48.7383 193.012 45.9481C193.012 43.1579 190.751 40.896 187.96 40.896C185.17 40.896 182.908 43.1579 182.908 45.9481C182.908 48.7383 185.17 51.0002 187.96 51.0002Z" fill="#31A745"/>
<path d="M142.234 51.0003C143.573 50.999 144.858 50.4663 145.805 49.5191C146.752 48.5719 147.285 47.2877 147.286 45.9481C147.286 45.2847 147.155 44.6277 146.902 44.0148C146.648 43.4018 146.275 42.8449 145.806 42.3757C145.337 41.9066 144.78 41.5345 144.167 41.2806C143.554 41.0267 142.897 40.896 142.234 40.896C140.896 40.8986 139.614 41.4321 138.669 42.3795C137.725 43.3268 137.195 44.6103 137.196 45.9481C137.196 47.2855 137.727 48.5684 138.671 49.5154C139.615 50.4625 140.896 50.9964 142.234 51.0003Z" fill="#31A745"/>
<path d="M96.5082 51.0002C99.2984 51.0002 101.56 48.7383 101.56 45.9481C101.56 43.1579 99.2984 40.896 96.5082 40.896C93.718 40.896 91.4561 43.1579 91.4561 45.9481C91.4561 48.7383 93.718 51.0002 96.5082 51.0002Z" fill="#31A745"/>
<path d="M50.7782 51.0002C53.5684 51.0002 55.8304 48.7383 55.8304 45.9481C55.8304 43.1579 53.5684 40.896 50.7782 40.896C47.988 40.896 45.7261 43.1579 45.7261 45.9481C45.7261 48.7383 47.988 51.0002 50.7782 51.0002Z" fill="#31A745"/>
<path d="M5.05215 51.0002C7.84237 51.0002 10.1043 48.7383 10.1043 45.9481C10.1043 43.1579 7.84237 40.896 5.05215 40.896C2.26192 40.896 0 43.1579 0 45.9481C0 48.7383 2.26192 51.0002 5.05215 51.0002Z" fill="#31A745"/>
<path d="M233.691 10.1043C235.03 10.103 236.315 9.57032 237.262 8.62314C238.209 7.67595 238.742 6.39166 238.743 5.05215C238.743 3.71223 238.211 2.4272 237.263 1.47974C236.316 0.532276 235.031 0 233.691 0C232.354 0.00512094 231.074 0.539653 230.131 1.48656C229.188 2.43347 228.658 3.71558 228.658 5.05215C228.659 6.38832 229.19 7.66968 230.133 8.61631C231.076 9.56294 232.355 10.0979 233.691 10.1043Z" fill="#31A745"/>
<path d="M187.96 10.1042C190.751 10.1042 193.012 7.84234 193.012 5.05211C193.012 2.26189 190.751 0 187.96 0C185.17 0 182.908 2.26189 182.908 5.05211C182.908 7.84234 185.17 10.1042 187.96 10.1042Z" fill="#31A745"/>
<path d="M142.234 10.1043C143.573 10.103 144.858 9.57032 145.805 8.62314C146.752 7.67595 147.285 6.39166 147.286 5.05215C147.286 3.71223 146.754 2.4272 145.806 1.47974C144.859 0.532276 143.574 0 142.234 0C140.896 0.00256466 139.614 0.536136 138.669 1.48346C137.725 2.43078 137.195 3.71435 137.196 5.05215C137.196 6.38955 137.727 7.67237 138.671 8.61941C139.615 9.56646 140.896 10.1004 142.234 10.1043Z" fill="#31A745"/>
<path d="M96.5082 10.1042C99.2984 10.1042 101.56 7.84234 101.56 5.05211C101.56 2.26189 99.2984 0 96.5082 0C93.718 0 91.4561 2.26189 91.4561 5.05211C91.4561 7.84234 93.718 10.1042 96.5082 10.1042Z" fill="#31A745"/>
<path d="M50.7782 10.1042C53.5684 10.1042 55.8304 7.84234 55.8304 5.05211C55.8304 2.26189 53.5684 0 50.7782 0C47.988 0 45.7261 2.26189 45.7261 5.05211C45.7261 7.84234 47.988 10.1042 50.7782 10.1042Z" fill="#31A745"/>
<path d="M5.05215 10.1042C7.84237 10.1042 10.1043 7.84234 10.1043 5.05211C10.1043 2.26189 7.84237 0 5.05215 0C2.26192 0 0 2.26189 0 5.05211C0 7.84234 2.26192 10.1042 5.05215 10.1042Z" fill="#31A745"/>
<path d="M233.691 214C235.03 213.999 236.315 213.466 237.262 212.519C238.209 211.572 238.742 210.288 238.743 208.948C238.743 208.285 238.613 207.628 238.359 207.015C238.105 206.402 237.733 205.845 237.263 205.376C236.794 204.907 236.237 204.534 235.624 204.281C235.011 204.027 234.354 203.896 233.691 203.896C232.354 203.901 231.074 204.436 230.131 205.383C229.188 206.329 228.658 207.612 228.658 208.948C228.659 210.284 229.19 211.566 230.133 212.512C231.076 213.459 232.355 213.994 233.691 214Z" fill="#31A745"/>
<path d="M187.96 214C190.751 214 193.012 211.738 193.012 208.948C193.012 206.158 190.751 203.896 187.96 203.896C185.17 203.896 182.908 206.158 182.908 208.948C182.908 211.738 185.17 214 187.96 214Z" fill="#31A745"/>
<path d="M142.234 214C143.573 213.999 144.858 213.466 145.805 212.519C146.752 211.572 147.285 210.288 147.286 208.948C147.286 208.285 147.155 207.628 146.902 207.015C146.648 206.402 146.275 205.845 145.806 205.376C145.337 204.907 144.78 204.534 144.167 204.281C143.554 204.027 142.897 203.896 142.234 203.896C140.896 203.899 139.614 204.432 138.669 205.379C137.725 206.327 137.195 207.61 137.196 208.948C137.196 210.286 137.727 211.568 138.671 212.515C139.615 213.462 140.896 213.996 142.234 214Z" fill="#31A745"/>
<path d="M96.5082 214C99.2984 214 101.56 211.738 101.56 208.948C101.56 206.158 99.2984 203.896 96.5082 203.896C93.718 203.896 91.4561 206.158 91.4561 208.948C91.4561 211.738 93.718 214 96.5082 214Z" fill="#31A745"/>
<path d="M50.7782 214C53.5684 214 55.8304 211.738 55.8304 208.948C55.8304 206.158 53.5684 203.896 50.7782 203.896C47.988 203.896 45.7261 206.158 45.7261 208.948C45.7261 211.738 47.988 214 50.7782 214Z" fill="#31A745"/>
<path d="M5.05215 214C7.84237 214 10.1043 211.738 10.1043 208.948C10.1043 206.158 7.84237 203.896 5.05215 203.896C2.26192 203.896 0 206.158 0 208.948C0 211.738 2.26192 214 5.05215 214Z" fill="#31A745"/>
<path d="M233.691 173.104C235.03 173.103 236.315 172.57 237.262 171.623C238.209 170.676 238.742 169.392 238.743 168.052C238.743 166.712 238.211 165.427 237.263 164.48C236.316 163.532 235.031 163 233.691 163C232.354 163.005 231.074 163.54 230.131 164.487C229.188 165.433 228.658 166.716 228.658 168.052C228.659 169.388 229.19 170.67 230.133 171.616C231.076 172.563 232.355 173.098 233.691 173.104Z" fill="#31A745"/>
<path d="M187.96 173.104C190.751 173.104 193.012 170.842 193.012 168.052C193.012 165.262 190.751 163 187.96 163C185.17 163 182.908 165.262 182.908 168.052C182.908 170.842 185.17 173.104 187.96 173.104Z" fill="#31A745"/>
<path d="M142.234 173.104C143.573 173.103 144.858 172.57 145.805 171.623C146.752 170.676 147.285 169.392 147.286 168.052C147.286 166.712 146.754 165.427 145.806 164.48C144.859 163.532 143.574 163 142.234 163C140.896 163.003 139.614 163.536 138.669 164.483C137.725 165.431 137.195 166.714 137.196 168.052C137.196 169.39 137.727 170.672 138.671 171.619C139.615 172.566 140.896 173.1 142.234 173.104Z" fill="#31A745"/>
<path d="M96.5082 173.104C99.2984 173.104 101.56 170.842 101.56 168.052C101.56 165.262 99.2984 163 96.5082 163C93.718 163 91.4561 165.262 91.4561 168.052C91.4561 170.842 93.718 173.104 96.5082 173.104Z" fill="#31A745"/>
<path d="M50.7782 173.104C53.5684 173.104 55.8304 170.842 55.8304 168.052C55.8304 165.262 53.5684 163 50.7782 163C47.988 163 45.7261 165.262 45.7261 168.052C45.7261 170.842 47.988 173.104 50.7782 173.104Z" fill="#31A745"/>
<path d="M5.05215 173.104C7.84237 173.104 10.1043 170.842 10.1043 168.052C10.1043 165.262 7.84237 163 5.05215 163C2.26192 163 0 165.262 0 168.052C0 170.842 2.26192 173.104 5.05215 173.104Z" fill="#31A745"/>
</svg>
