<svg width="27" height="27" viewBox="0 0 27 27" fill="none" xmlns="http://www.w3.org/2000/svg">
<path d="M13.5 5.48438C12.801 5.48438 12.2344 4.91774 12.2344 4.21875C12.2344 3.51976 12.801 2.95312 13.5 2.95312C14.199 2.95312 14.7656 3.51976 14.7656 4.21875C14.7656 4.91774 14.199 5.48438 13.5 5.48438Z" stroke="white" stroke-width="2.53125" stroke-linecap="round" stroke-linejoin="round"/>
<path d="M13.5 14.7656C12.801 14.7656 12.2344 14.199 12.2344 13.5C12.2344 12.801 12.801 12.2344 13.5 12.2344C14.199 12.2344 14.7656 12.801 14.7656 13.5C14.7656 14.199 14.199 14.7656 13.5 14.7656Z" stroke="white" stroke-width="2.53125" stroke-linecap="round" stroke-linejoin="round"/>
<path d="M13.5 24.0469C12.801 24.0469 12.2344 23.4802 12.2344 22.7812C12.2344 22.0823 12.801 21.5156 13.5 21.5156C14.199 21.5156 14.7656 22.0823 14.7656 22.7812C14.7656 23.4802 14.199 24.0469 13.5 24.0469Z" stroke="white" stroke-width="2.53125" stroke-linecap="round" stroke-linejoin="round"/>
</svg>
