<svg width="31" height="31" viewBox="0 0 31 31" fill="none" xmlns="http://www.w3.org/2000/svg">
<circle cx="15.5" cy="15.5" r="15.5" fill="white"/>
<path d="M24.1673 14.695V15.5C24.1662 17.3869 23.5261 19.2228 22.3425 20.7341C21.159 22.2454 19.4953 23.3509 17.5997 23.8859C15.7041 24.4209 13.6781 24.3567 11.8239 23.7028C9.96969 23.0489 8.38658 21.8403 7.3107 20.2574C6.23481 18.6745 5.72379 16.8021 5.85385 14.9193C5.98392 13.0365 6.74809 11.2443 8.03241 9.80994C9.31672 8.3756 11.0524 7.37596 12.9805 6.96013C14.9086 6.5443 16.9259 6.73455 18.7315 7.5025" stroke="#31A745" stroke-width="2.5" stroke-linecap="round" stroke-linejoin="round"/>
<path d="M24.1667 8.5L15 17.2588L12.25 14.6338" stroke="#31A745" stroke-width="2.5" stroke-linecap="round" stroke-linejoin="round"/>
</svg>
