<svg width="81" height="71" viewBox="0 0 81 71" fill="none" xmlns="http://www.w3.org/2000/svg">
<g clip-path="url(#clip0_112_1768)">
<path d="M45.8899 69.2922C41.3568 69.3023 36.8668 68.411 32.6811 66.6702L33.8439 63.8658C40.5694 66.6584 48.0576 67.0212 55.0216 64.8921C61.9856 62.7629 67.9905 58.2747 72.0046 52.1987C76.0187 46.1227 77.7911 38.8383 77.0174 31.5973C76.2437 24.3563 72.9722 17.6109 67.765 12.5202C62.5577 7.4295 55.74 4.3114 48.4834 3.70172C41.2267 3.09205 33.9843 5.02887 28.0007 9.17937C22.0171 13.3299 17.6659 19.4349 15.6948 26.4452C13.7238 33.4556 14.256 40.9336 17.1999 47.5942L14.4411 48.8254C11.44 42.0473 10.7093 34.4808 12.358 27.2536C14.0066 20.0264 17.9465 13.5254 23.5903 8.71932C29.2341 3.91327 36.2797 1.05949 43.6773 0.583271C51.0748 0.107047 58.4283 2.03386 64.6417 6.07659C70.8552 10.1193 75.596 16.0615 78.1578 23.0177C80.7195 29.9738 80.965 37.5715 78.8577 44.6786C76.7504 51.7856 72.4031 58.0215 66.4636 62.4569C60.5241 66.8923 53.3104 69.2899 45.8975 69.2922H45.8899Z" fill="#31A745"/>
<path d="M47.4101 6.41016H44.3701V12.3686H47.4101V6.41016Z" fill="#31A745"/>
<path d="M23.3485 33.3901H17.3901V36.4301H23.3485V33.3901Z" fill="#31A745"/>
<path d="M47.4101 57.4517H44.3701V63.4101H47.4101V57.4517Z" fill="#31A745"/>
<path d="M74.39 33.3828H68.4316V36.4228H74.39V33.3828Z" fill="#31A745"/>
<path d="M38.1303 44.8206L35.9795 42.6698L44.3395 34.3098V15.9102H47.3795V34.8418C47.3878 35.0471 47.3543 35.2519 47.2811 35.444C47.208 35.636 47.0967 35.8112 46.9539 35.959L38.1303 44.8206Z" fill="#31A745"/>
<path d="M0.47998 70.3488V68.2968L2.58518 66.3588C6.77278 62.4752 8.74118 60.3396 8.77158 57.9988C8.77158 56.418 7.92038 55.0196 5.59478 55.0196C4.20154 55.0913 2.86873 55.6111 1.79478 56.5016L0.806781 54.1152C2.37451 52.9097 4.30124 52.2648 6.27878 52.2836C10.2156 52.2836 12.1308 54.7764 12.1308 57.672C12.1308 60.7956 9.88878 63.3112 6.81078 66.184L5.24518 67.5216V67.5748H12.5488V70.364L0.47998 70.3488Z" fill="#31A745"/>
<path d="M22.5584 70.3492V65.8424H14.5176V63.6536L21.768 52.5728H25.7352V63.2964H28.0152V65.8424H25.7352V70.3492H22.5584ZM22.5584 63.2964V58.4552C22.5584 57.4368 22.5584 56.4032 22.6724 55.362H22.5584C22.0112 56.4868 21.5476 57.3836 21.0004 58.402L17.7476 63.2736V63.3268L22.5584 63.2964Z" fill="#31A745"/>
</g>
<defs>
<clipPath id="clip0_112_1768">
<rect width="79.7924" height="69.8288" fill="white" transform="translate(0.47998 0.52002)"/>
</clipPath>
</defs>
</svg>
