<svg width="93" height="57" viewBox="0 0 93 57" fill="none" xmlns="http://www.w3.org/2000/svg">
<g clip-path="url(#clip0_112_1777)">
<path d="M62.1394 49.6537H23.0298V46.6137H60.6194V3.23287H3.68014V46.6061H9.31935V49.6461H2.16014C1.75701 49.6461 1.37039 49.4859 1.08533 49.2009C0.800278 48.9158 0.640137 48.5292 0.640137 48.1261V1.71287C0.640137 1.30974 0.800278 0.923123 1.08533 0.638068C1.37039 0.353012 1.75701 0.192871 2.16014 0.192871H62.1394C62.5425 0.192871 62.9291 0.353012 63.2141 0.638068C63.4992 0.923123 63.6594 1.30974 63.6594 1.71287V48.1261C63.6604 48.3263 63.6218 48.5248 63.5458 48.7101C63.4699 48.8954 63.3581 49.0638 63.2169 49.2058C63.0756 49.3477 62.9077 49.4604 62.7228 49.5373C62.5379 49.6141 62.3396 49.6537 62.1394 49.6537Z" fill="#31A745"/>
<path d="M67.8849 46.6211H62.1089V49.6611H67.8849V46.6211Z" fill="#31A745"/>
<path d="M88.382 49.6535H81.5876V46.6135H88.382C88.7851 46.6135 89.1717 46.4534 89.4568 46.1683C89.7418 45.8833 89.902 45.4967 89.902 45.0935V31.9455C89.8921 31.549 89.7275 31.1721 89.4435 30.8952C89.1596 30.6183 88.7786 30.4634 88.382 30.4635H87.3788C86.1971 30.4152 85.0534 30.0324 84.0807 29.3597C83.108 28.6871 82.3462 27.7521 81.8839 26.6635L79.186 19.5879C78.9442 19.0746 78.5706 18.6346 78.1033 18.3129C77.636 17.9911 77.0917 17.799 76.526 17.7563H62.1392V14.7163H76.5792C77.7613 14.7628 78.9058 15.1449 79.8788 15.8178C80.8518 16.4907 81.6132 17.4267 82.0739 18.5163L84.7795 25.5843C85.0194 26.0975 85.3914 26.5376 85.8576 26.8595C86.3237 27.1814 86.8671 27.3734 87.432 27.4159H88.4351C89.638 27.4159 90.7921 27.8911 91.6462 28.738C92.5003 29.585 92.9851 30.7351 92.9951 31.9379V45.1239C92.9912 45.7247 92.8686 46.3187 92.6343 46.872C92.4 47.4252 92.0587 47.9267 91.63 48.3476C91.2013 48.7685 90.6937 49.1005 90.1363 49.3246C89.5789 49.5488 88.9827 49.6606 88.382 49.6535Z" fill="#31A745"/>
<path d="M77.4532 30.6304H67.8848V27.5904H74.7248L72.2396 23.6156L74.816 22.0044L78.7528 28.3048C78.8862 28.5358 78.9564 28.798 78.9564 29.0648C78.9564 29.3316 78.8862 29.5937 78.7528 29.8248C78.6266 30.0619 78.4399 30.2614 78.2117 30.4029C77.9834 30.5444 77.7217 30.6229 77.4532 30.6304Z" fill="#31A745"/>
<path d="M16.1745 56.5081C14.521 56.5081 12.9047 56.0178 11.5299 55.0992C10.1551 54.1806 9.08358 52.8749 8.45083 51.3473C7.81808 49.8197 7.65252 48.1388 7.97509 46.5171C8.29766 44.8954 9.09388 43.4059 10.263 42.2367C11.4322 41.0675 12.9218 40.2713 14.5435 39.9487C16.1652 39.6262 17.8461 39.7917 19.3737 40.4244C20.9013 41.0572 22.2069 42.1287 23.1255 43.5035C24.0442 44.8783 24.5345 46.4946 24.5345 48.1481C24.5345 50.3653 23.6537 52.4917 22.0859 54.0595C20.5181 55.6273 18.3917 56.5081 16.1745 56.5081ZM16.1745 42.8281C15.1223 42.8281 14.0937 43.1401 13.2188 43.7247C12.344 44.3092 11.6621 45.1401 11.2594 46.1122C10.8568 47.0843 10.7514 48.154 10.9567 49.186C11.162 50.2179 11.6686 51.1659 12.4127 51.9099C13.1567 52.6539 14.1046 53.1606 15.1366 53.3659C16.1686 53.5712 17.2382 53.4658 18.2103 53.0631C19.1824 52.6605 20.0133 51.9786 20.5979 51.1037C21.1825 50.2289 21.4945 49.2003 21.4945 48.1481C21.4975 47.4475 21.3621 46.7533 21.0961 46.1052C20.83 45.4571 20.4387 44.868 19.9443 44.3715C19.45 43.8751 18.8626 43.4812 18.2156 43.2124C17.5687 42.9436 16.875 42.8053 16.1745 42.8053V42.8281Z" fill="#31A745"/>
<path d="M74.7399 56.5081C73.0864 56.5081 71.4701 56.0178 70.0953 55.0992C68.7205 54.1806 67.649 52.8749 67.0162 51.3473C66.3835 49.8197 66.218 48.1388 66.5405 46.5171C66.8631 44.8954 67.6593 43.4059 68.8285 42.2367C69.9976 41.0675 71.4873 40.2713 73.1089 39.9487C74.7306 39.6262 76.4115 39.7917 77.9391 40.4244C79.4667 41.0572 80.7723 42.1287 81.6909 43.5035C82.6096 44.8783 83.0999 46.4946 83.0999 48.1481C83.0999 50.3653 82.2191 52.4917 80.6513 54.0595C79.0835 55.6273 76.9571 56.5081 74.7399 56.5081ZM74.7399 42.8281C73.6877 42.8281 72.6591 43.1401 71.7842 43.7247C70.9094 44.3092 70.2275 45.1401 69.8249 46.1122C69.4222 47.0843 69.3168 48.154 69.5221 49.186C69.7274 50.2179 70.2341 51.1659 70.9781 51.9099C71.7221 52.6539 72.67 53.1606 73.702 53.3659C74.734 53.5712 75.8037 53.4658 76.7758 53.0631C77.7479 52.6605 78.5787 51.9786 79.1633 51.1037C79.7479 50.2289 80.0599 49.2003 80.0599 48.1481C80.0629 47.4475 79.9275 46.7533 79.6615 46.1052C79.3955 45.4571 79.0041 44.868 78.5098 44.3715C78.0155 43.8751 77.428 43.4812 76.781 43.2124C76.1341 42.9436 75.4404 42.8053 74.7399 42.8053V42.8281Z" fill="#31A745"/>
<path d="M37.8873 17.0193H26.4189C26.0158 17.0193 25.6292 16.8591 25.3441 16.5741C25.0591 16.289 24.8989 15.9024 24.8989 15.4993V1.71287C24.8989 1.30974 25.0591 0.923123 25.3441 0.638068C25.6292 0.353012 26.0158 0.192871 26.4189 0.192871H37.9253C38.3285 0.192871 38.7151 0.353012 39.0001 0.638068C39.2852 0.923123 39.4453 1.30974 39.4453 1.71287V15.4917C39.4464 15.6952 39.4066 15.8968 39.3283 16.0846C39.25 16.2724 39.1348 16.4426 38.9895 16.5851C38.8442 16.7275 38.6718 16.8394 38.4825 16.914C38.2931 16.9885 38.0907 17.0244 37.8873 17.0193ZM27.9009 13.9793H36.3673V3.23287H27.9389L27.9009 13.9793Z" fill="#31A745"/>
<path d="M55.8611 39.7656H41.7783V42.8056H55.8611V39.7656Z" fill="#31A745"/>
<path d="M39.385 39.7656H36.3906V42.8056H39.385V39.7656Z" fill="#31A745"/>
</g>
<defs>
<clipPath id="clip0_112_1777">
<rect width="92.2716" height="56.3084" fill="white" transform="translate(0.640137 0.200195)"/>
</clipPath>
</defs>
</svg>
