<svg width="36" height="37" viewBox="0 0 36 37" fill="none" xmlns="http://www.w3.org/2000/svg">
<g clip-path="url(#clip0_46_2868)">
<path d="M22.5751 8.08508C24.0402 8.37093 25.3867 9.08747 26.4422 10.143C27.4978 11.1985 28.2143 12.545 28.5001 14.0101M22.5751 2.08508C25.6191 2.42324 28.4575 3.78635 30.6245 5.95059C32.7915 8.11484 34.1582 10.9516 34.5001 13.9951M33.0001 25.9651V30.4651C33.0018 30.8828 32.9163 31.2963 32.7489 31.6791C32.5816 32.0619 32.3361 32.4055 32.0283 32.6879C31.7204 32.9703 31.357 33.1853 30.9613 33.3191C30.5655 33.453 30.1462 33.5027 29.7301 33.4651C25.1144 32.9635 20.6806 31.3863 16.7851 28.8601C13.1609 26.5571 10.0881 23.4843 7.78514 19.8601C5.25011 15.9469 3.67251 11.4916 3.18014 6.85508C3.14266 6.44028 3.19196 6.02222 3.32489 5.62752C3.45783 5.23282 3.6715 4.87012 3.95229 4.56251C4.23309 4.25491 4.57485 4.00915 4.95583 3.84087C5.33681 3.67258 5.74865 3.58548 6.16514 3.58508H10.6651C11.3931 3.57792 12.0988 3.8357 12.6508 4.31038C13.2027 4.78506 13.5633 5.44425 13.6651 6.16508C13.8551 7.60518 14.2073 9.01917 14.7151 10.3801C14.917 10.917 14.9606 11.5005 14.841 12.0614C14.7214 12.6224 14.4434 13.1372 14.0401 13.5451L12.1351 15.4501C14.2705 19.2054 17.3798 22.3147 21.1351 24.4501L23.0401 22.5451C23.448 22.1418 23.9629 21.8639 24.5238 21.7442C25.0848 21.6246 25.6683 21.6683 26.2051 21.8701C27.5661 22.3779 28.98 22.7301 30.4201 22.9201C31.1488 23.0229 31.8142 23.3899 32.2899 23.9513C32.7656 24.5128 33.0184 25.2294 33.0001 25.9651Z" stroke="#31A745" stroke-width="3" stroke-linecap="round" stroke-linejoin="round"/>
</g>
<defs>
<clipPath id="clip0_46_2868">
<rect width="36" height="36" fill="white" transform="translate(0 0.585083)"/>
</clipPath>
</defs>
</svg>
