<svg width="126" height="155" viewBox="0 0 126 155" fill="none" xmlns="http://www.w3.org/2000/svg">
<path d="M119.117 154.542C122.56 154.542 125.352 151.911 125.352 148.667C125.352 145.422 122.56 142.792 119.117 142.792C115.673 142.792 112.881 145.422 112.881 148.667C112.881 151.911 115.673 154.542 119.117 154.542Z" fill="white"/>
<path d="M62.6732 154.542C64.327 154.542 65.913 153.923 67.0824 152.821C68.2518 151.719 68.9088 150.225 68.9088 148.667C68.9096 147.895 68.7489 147.13 68.4358 146.417C68.1227 145.704 67.6633 145.056 67.0842 144.511C66.505 143.965 65.8173 143.532 65.0604 143.237C64.3035 142.942 63.4923 142.791 62.6732 142.792C61.0194 142.792 59.4333 143.411 58.2639 144.512C57.0945 145.614 56.4375 147.108 56.4375 148.667C56.4391 150.224 57.0966 151.718 58.2657 152.819C59.4347 153.921 61.0199 154.54 62.6732 154.542Z" fill="white"/>
<path d="M6.23566 154.542C9.67952 154.542 12.4713 151.911 12.4713 148.667C12.4713 145.422 9.67952 142.792 6.23566 142.792C2.7918 142.792 0 145.422 0 148.667C0 151.911 2.7918 154.542 6.23566 154.542Z" fill="white"/>
<path d="M119.117 106.984C122.56 106.984 125.352 104.354 125.352 101.109C125.352 97.8648 122.56 95.2344 119.117 95.2344C115.673 95.2344 112.881 97.8648 112.881 101.109C112.881 104.354 115.673 106.984 119.117 106.984Z" fill="white"/>
<path d="M62.6732 106.984C64.327 106.984 65.913 106.365 67.0824 105.263C68.2518 104.161 68.9088 102.667 68.9088 101.109C68.9096 100.337 68.7489 99.5721 68.4358 98.8587C68.1228 98.1452 67.6636 97.4969 67.0845 96.9507C66.5054 96.4046 65.8177 95.9714 65.0608 95.6758C64.3039 95.3802 63.4926 95.228 62.6732 95.228C61.0188 95.2295 59.4328 95.8497 58.2636 96.9524C57.0943 98.0551 56.4375 99.55 56.4375 101.109C56.4391 102.666 57.0966 104.16 58.2657 105.261C59.4347 106.363 61.0199 106.982 62.6732 106.984Z" fill="white"/>
<path d="M6.23566 106.984C9.67952 106.984 12.4713 104.354 12.4713 101.109C12.4713 97.8648 9.67952 95.2344 6.23566 95.2344C2.7918 95.2344 0 97.8648 0 101.109C0 104.354 2.7918 106.984 6.23566 106.984Z" fill="white"/>
<path d="M119.117 59.4215C122.56 59.4215 125.352 56.7911 125.352 53.5464C125.352 50.3017 122.56 47.6714 119.117 47.6714C115.673 47.6714 112.881 50.3017 112.881 53.5464C112.881 56.7911 115.673 59.4215 119.117 59.4215Z" fill="white"/>
<path d="M62.6732 59.4215C63.4923 59.4223 64.3035 59.2707 65.0604 58.9757C65.8173 58.6807 66.505 58.2481 67.0842 57.7024C67.6633 57.1567 68.1227 56.5087 68.4358 55.7956C68.7489 55.0825 68.9096 54.3181 68.9088 53.5464C68.9088 52.7749 68.7475 52.011 68.4342 51.2982C68.1208 50.5854 67.6614 49.9377 67.0824 49.3922C66.5034 48.8466 65.816 48.4138 65.0594 48.1186C64.3029 47.8233 63.4921 47.6714 62.6732 47.6714C61.0199 47.6729 59.4347 48.2924 58.2657 49.3938C57.0966 50.4953 56.4391 51.9887 56.4375 53.5464C56.4375 55.1046 57.0945 56.599 58.2639 57.7007C59.4333 58.8025 61.0194 59.4215 62.6732 59.4215Z" fill="white"/>
<path d="M6.23566 59.4215C9.67952 59.4215 12.4713 56.7911 12.4713 53.5464C12.4713 50.3017 9.67952 47.6714 6.23566 47.6714C2.7918 47.6714 0 50.3017 0 53.5464C0 56.7911 2.7918 59.4215 6.23566 59.4215Z" fill="white"/>
<path d="M119.117 11.8639C122.56 11.8639 125.352 9.23351 125.352 5.98881C125.352 2.74412 122.56 0.11377 119.117 0.11377C115.673 0.11377 112.881 2.74412 112.881 5.98881C112.881 9.23351 115.673 11.8639 119.117 11.8639Z" fill="white"/>
<path d="M62.6732 11.8639C63.4923 11.8647 64.3035 11.7132 65.0604 11.4182C65.8173 11.1232 66.505 10.6905 67.0842 10.1448C67.6633 9.59908 68.1227 8.95109 68.4358 8.23796C68.7489 7.52484 68.9096 6.76051 68.9088 5.98878C68.9088 4.43062 68.2518 2.93634 67.0824 1.83456C65.913 0.732777 64.327 0.11377 62.6732 0.11377C61.0199 0.115259 59.4347 0.734748 58.2657 1.83621C57.0966 2.93767 56.4391 4.43108 56.4375 5.98878C56.4375 7.54693 57.0945 9.04135 58.2639 10.1431C59.4333 11.2449 61.0194 11.8639 62.6732 11.8639Z" fill="white"/>
<path d="M6.23566 11.8639C9.67952 11.8639 12.4713 9.23351 12.4713 5.98881C12.4713 2.74412 9.67952 0.11377 6.23566 0.11377C2.7918 0.11377 0 2.74412 0 5.98881C0 9.23351 2.7918 11.8639 6.23566 11.8639Z" fill="white"/>
</svg>
