<svg width="368" height="240" viewBox="0 0 368 240" fill="none" xmlns="http://www.w3.org/2000/svg">
<path d="M0 20.919V10.2988L9.79873 0.5H20.419L0 20.919Z" fill="#31A745"/>
<path d="M0 59.3351V48.7149L48.2149 0.5H58.8351L0 59.3351Z" fill="#31A745"/>
<path d="M0 97.7598V87.131L86.6738 0.5H97.2598L0 97.7598Z" fill="#31A745"/>
<path d="M0 136.176V125.556L125.09 0.5H135.71L0 136.176Z" fill="#31A745"/>
<path d="M0 174.592V164.04L163.506 0.5H174.126L0 174.592Z" fill="#31A745"/>
<path d="M0 213.085V202.456L201.931 0.5H212.551L0 213.085Z" fill="#31A745"/>
<path d="M12.2804 239.221H1.66016L240.381 0.5H250.967L12.2804 239.221Z" fill="#31A745"/>
<path d="M50.6965 239.221H40.0762L278.831 0.5H289.417L50.6965 239.221Z" fill="#31A745"/>
<path d="M89.1213 239.221H78.4924L317.248 0.5H327.876L89.1213 239.221Z" fill="#31A745"/>
<path d="M127.537 239.221H116.986L355.672 0.5H366.293L127.537 239.221Z" fill="#31A745"/>
<path d="M166.022 239.221H155.402L367.91 26.6782V37.2984L166.022 239.221Z" fill="#31A745"/>
<path d="M204.447 239.221H193.818L367.91 65.1289V75.7235L204.447 239.221Z" fill="#31A745"/>
<path d="M242.863 239.221H232.242L367.91 103.588V114.174L242.863 239.221Z" fill="#31A745"/>
<path d="M281.279 239.221H270.659L367.91 142.004V152.624L281.279 239.221Z" fill="#31A745"/>
<path d="M319.738 239.221H309.109L367.91 180.42V191.049L319.738 239.221Z" fill="#31A745"/>
</svg>
