<svg width="59" height="119" viewBox="0 0 59 119" fill="none" xmlns="http://www.w3.org/2000/svg">
<g opacity="0.5">
<path d="M0 10.1725V4.88165L4.88162 0H10.1725L0 10.1725Z" fill="white"/>
<path d="M0 29.311V24.0201L24.0201 0H29.311L0 29.311Z" fill="white"/>
<path d="M0 48.4538V43.1586L43.1799 0H48.4538L0 48.4538Z" fill="white"/>
<path d="M0 67.5923V62.3013L62.3184 0H67.6093L0 67.5923Z" fill="white"/>
<path d="M0 86.7308V81.474L81.4569 0H86.7478L0 86.7308Z" fill="white"/>
<path d="M0 105.908V100.612L100.6 0H105.891L0 105.908Z" fill="white"/>
<path d="M6.11805 118.928H0.827148L119.755 0H125.029L6.11805 118.928Z" fill="white"/>
<path d="M25.2562 118.928H19.9653L138.91 0H144.184L25.2562 118.928Z" fill="white"/>
<path d="M44.3992 118.928H39.104L158.049 0H163.344L44.3992 118.928Z" fill="white"/>
<path d="M63.5376 118.928H58.2808L177.192 0H182.483L63.5376 118.928Z" fill="white"/>
</g>
</svg>
