<svg width="133" height="99" viewBox="0 0 133 99" fill="none" xmlns="http://www.w3.org/2000/svg">
<path d="M106.485 -0.000248206C104.905 -0.000248344 103.623 1.2812 103.623 2.86194C103.623 4.44269 104.905 5.72412 106.485 5.72412C108.066 5.72412 109.348 4.44269 109.348 2.86195C109.348 1.2812 108.066 -0.000248067 106.485 -0.000248206Z" fill="white"/>
<path d="M132.393 -0.000248206C130.812 -0.000248344 129.531 1.2812 129.531 2.86194C129.531 4.44269 130.812 5.72412 132.393 5.72412C133.974 5.72412 135.255 4.44269 135.255 2.86195C135.255 1.2812 133.974 -0.000248067 132.393 -0.000248206Z" fill="white"/>
<path d="M2.86242 23.1692C1.28167 23.1692 0.000224979 24.4506 0.000224841 26.0314C0.000224702 27.6121 1.28167 28.8936 2.86242 28.8936C4.44316 28.8936 5.72461 27.6121 5.72461 26.0314C5.72461 24.4506 4.44316 23.1692 2.86242 23.1692Z" fill="white"/>
<path d="M28.7672 23.1692C28.0081 23.1692 27.2801 23.4708 26.7433 24.0075C26.2065 24.5443 25.905 25.2723 25.905 26.0314C25.905 26.7905 26.2065 27.5185 26.7433 28.0553C27.2801 28.5921 28.0081 28.8936 28.7672 28.8936C29.1432 28.8939 29.5156 28.8201 29.863 28.6764C30.2104 28.5327 30.526 28.3219 30.7919 28.0561C31.0577 27.7902 31.2686 27.4746 31.4123 27.1271C31.556 26.7797 31.6298 26.4073 31.6294 26.0314C31.6298 25.6554 31.556 25.283 31.4123 24.9356C31.2686 24.5882 31.0577 24.2726 30.7919 24.0067C30.526 23.7409 30.2104 23.53 29.863 23.3863C29.5156 23.2426 29.1432 23.1688 28.7672 23.1692Z" fill="white"/>
<path d="M54.6725 23.1692C53.0917 23.1692 51.8103 24.4506 51.8103 26.0314C51.8103 27.6121 53.0917 28.8936 54.6725 28.8936C56.2532 28.8936 57.5347 27.6121 57.5347 26.0314C57.5347 24.4506 56.2532 23.1692 54.6725 23.1692Z" fill="white"/>
<path d="M80.5802 23.1692C80.2042 23.1688 79.8319 23.2426 79.4845 23.3863C79.137 23.53 78.8214 23.7409 78.5555 24.0067C78.2897 24.2726 78.0789 24.5882 77.9352 24.9356C77.7914 25.283 77.7176 25.6554 77.718 26.0314C77.7176 26.4073 77.7914 26.7797 77.9352 27.1271C78.0789 27.4746 78.2897 27.7902 78.5555 28.0561C78.8214 28.3219 79.137 28.5327 79.4845 28.6764C79.8319 28.8201 80.2042 28.8939 80.5802 28.8936C80.9562 28.8939 81.3285 28.8201 81.6759 28.6764C82.0233 28.5327 82.339 28.3219 82.6049 28.0561C82.8707 27.7902 83.0815 27.4746 83.2253 27.1271C83.369 26.7797 83.4427 26.4073 83.4424 26.0314C83.4427 25.6554 83.369 25.283 83.2253 24.9356C83.0815 24.5882 82.8707 24.2726 82.6049 24.0067C82.339 23.7409 82.0233 23.53 81.6759 23.3863C81.3285 23.2426 80.9562 23.1688 80.5802 23.1692Z" fill="white"/>
<path d="M106.485 23.1692C104.905 23.1692 103.623 24.4506 103.623 26.0314C103.623 27.6121 104.905 28.8936 106.485 28.8936C108.066 28.8936 109.348 27.6121 109.348 26.0314C109.348 24.4506 108.066 23.1692 106.485 23.1692Z" fill="white"/>
<path d="M132.393 23.1692C130.812 23.1692 129.531 24.4506 129.531 26.0314C129.531 27.6121 130.812 28.8936 132.393 28.8936C133.974 28.8936 135.255 27.6121 135.255 26.0314C135.255 24.4506 133.974 23.1692 132.393 23.1692Z" fill="white"/>
<path d="M2.86242 46.3376C1.28167 46.3376 0.000224979 47.6191 0.000224841 49.1998C0.000224702 50.7806 1.28167 52.062 2.86242 52.062C4.44316 52.062 5.72461 50.7806 5.72461 49.1998C5.72461 47.6191 4.44316 46.3376 2.86242 46.3376Z" fill="white"/>
<path d="M28.7672 46.3377C28.0083 46.3384 27.2807 46.6402 26.7441 47.1768C26.2075 47.7134 25.9058 48.441 25.905 49.1998C25.905 49.9589 26.2065 50.6869 26.7433 51.2237C27.2801 51.7604 28.0081 52.062 28.7672 52.062C29.1432 52.0624 29.5156 51.9886 29.863 51.8449C30.2104 51.7012 30.526 51.4903 30.7919 51.2245C31.0577 50.9586 31.2686 50.643 31.4123 50.2956C31.556 49.9482 31.6298 49.5758 31.6294 49.1998C31.6294 48.4407 31.3278 47.7128 30.7911 47.176C30.2543 46.6392 29.5263 46.3377 28.7672 46.3377V46.3377Z" fill="white"/>
<path d="M54.6725 46.3376C53.0917 46.3376 51.8103 47.6191 51.8103 49.1998C51.8103 50.7806 53.0917 52.062 54.6725 52.062C56.2532 52.062 57.5347 50.7806 57.5347 49.1998C57.5347 47.6191 56.2532 46.3376 54.6725 46.3376Z" fill="white"/>
<path d="M80.5802 46.3377C79.8211 46.3377 79.0931 46.6392 78.5563 47.176C78.0196 47.7128 77.718 48.4407 77.718 49.1998C77.7176 49.5758 77.7914 49.9482 77.9352 50.2956C78.0789 50.643 78.2897 50.9586 78.5555 51.2245C78.8214 51.4903 79.137 51.7012 79.4845 51.8449C79.8319 51.9886 80.2042 52.0624 80.5802 52.062C80.9562 52.0624 81.3285 51.9886 81.6759 51.8449C82.0233 51.7012 82.339 51.4903 82.6049 51.2245C82.8707 50.9586 83.0815 50.643 83.2253 50.2956C83.369 49.9482 83.4427 49.5758 83.4424 49.1998C83.4424 48.4407 83.1408 47.7128 82.6041 47.176C82.0673 46.6392 81.3393 46.3377 80.5802 46.3377V46.3377Z" fill="white"/>
<path d="M106.485 46.3376C104.905 46.3376 103.623 47.6191 103.623 49.1998C103.623 50.7806 104.905 52.062 106.485 52.062C108.066 52.062 109.348 50.7806 109.348 49.1998C109.348 47.6191 108.066 46.3376 106.485 46.3376Z" fill="white"/>
<path d="M132.393 46.3376C130.812 46.3376 129.531 47.6191 129.531 49.1998C129.531 50.7806 130.812 52.062 132.393 52.062C133.974 52.062 135.255 50.7806 135.255 49.1998C135.255 47.6191 133.974 46.3376 132.393 46.3376Z" fill="white"/>
<path d="M2.86242 69.5071C1.28167 69.5071 0.000224979 70.7885 0.000224841 72.3693C0.000224702 73.95 1.28167 75.2314 2.86242 75.2314C4.44316 75.2314 5.72461 73.95 5.72461 72.3693C5.72461 70.7885 4.44316 69.5071 2.86242 69.5071Z" fill="white"/>
<path d="M28.7672 69.5071C28.0083 69.5078 27.2807 69.8096 26.7441 70.3462C26.2075 70.8828 25.9058 71.6104 25.905 72.3693C25.905 73.1284 26.2065 73.8563 26.7433 74.3931C27.2801 74.9299 28.0081 75.2314 28.7672 75.2314C29.1432 75.2318 29.5156 75.158 29.863 75.0143C30.2104 74.8706 30.526 74.6598 30.7919 74.3939C31.0577 74.1281 31.2686 73.8124 31.4123 73.465C31.556 73.1176 31.6298 72.7452 31.6294 72.3693C31.6294 71.6102 31.3278 70.8821 30.7911 70.3454C30.2543 69.8086 29.5263 69.5071 28.7672 69.5071V69.5071Z" fill="white"/>
<path d="M54.6725 69.5071C53.0917 69.5071 51.8103 70.7885 51.8103 72.3693C51.8103 73.95 53.0917 75.2314 54.6725 75.2314C56.2532 75.2314 57.5347 73.95 57.5347 72.3693C57.5347 70.7885 56.2532 69.5071 54.6725 69.5071Z" fill="white"/>
<path d="M80.5802 69.5071C79.8211 69.5071 79.0931 69.8086 78.5563 70.3454C78.0196 70.8821 77.718 71.6102 77.718 72.3693C77.7176 72.7452 77.7914 73.1176 77.9352 73.465C78.0789 73.8124 78.2897 74.1281 78.5555 74.3939C78.8214 74.6598 79.137 74.8706 79.4845 75.0143C79.8319 75.158 80.2042 75.2318 80.5802 75.2314C80.9562 75.2318 81.3285 75.158 81.6759 75.0143C82.0233 74.8706 82.339 74.6598 82.6049 74.3939C82.8707 74.1281 83.0815 73.8124 83.2253 73.465C83.369 73.1176 83.4427 72.7452 83.4424 72.3693C83.4424 71.6102 83.1408 70.8821 82.6041 70.3454C82.0673 69.8086 81.3393 69.5071 80.5802 69.5071V69.5071Z" fill="white"/>
<path d="M106.485 69.5071C104.905 69.5071 103.623 70.7885 103.623 72.3693C103.623 73.95 104.905 75.2314 106.485 75.2314C108.066 75.2314 109.348 73.95 109.348 72.3693C109.348 70.7885 108.066 69.5071 106.485 69.5071Z" fill="white"/>
<path d="M132.393 69.5071C130.812 69.5071 129.531 70.7885 129.531 72.3693C129.531 73.95 130.812 75.2314 132.393 75.2314C133.974 75.2314 135.255 73.95 135.255 72.3693C135.255 70.7885 133.974 69.5071 132.393 69.5071Z" fill="white"/>
<path d="M2.86242 92.6755C1.28167 92.6755 0.000224979 93.957 0.000224841 95.5377C0.000224702 97.1185 1.28167 98.3999 2.86242 98.3999C4.44316 98.3999 5.72461 97.1185 5.72461 95.5377C5.72461 93.957 4.44316 92.6755 2.86242 92.6755Z" fill="white"/>
<path d="M28.7672 92.6785C28.0081 92.6785 27.2801 92.98 26.7433 93.5167C26.2065 94.0535 25.905 94.7816 25.905 95.5407C25.9058 96.2995 26.2075 97.0271 26.7441 97.5637C27.2807 98.1003 28.0083 98.4021 28.7672 98.4028C29.5263 98.4028 30.2543 98.1013 30.7911 97.5645C31.3278 97.0277 31.6294 96.2998 31.6294 95.5407C31.6298 95.1647 31.556 94.7923 31.4123 94.4449C31.2686 94.0975 31.0577 93.7818 30.7919 93.5159C30.526 93.2501 30.2104 93.0393 29.863 92.8956C29.5156 92.7519 29.1432 92.6781 28.7672 92.6785Z" fill="white"/>
<path d="M54.6725 92.6755C53.0917 92.6755 51.8103 93.957 51.8103 95.5377C51.8103 97.1185 53.0917 98.3999 54.6725 98.3999C56.2532 98.3999 57.5347 97.1185 57.5347 95.5377C57.5347 93.957 56.2532 92.6755 54.6725 92.6755Z" fill="white"/>
<path d="M80.5802 92.6785C80.2042 92.6781 79.8319 92.7519 79.4845 92.8956C79.137 93.0393 78.8214 93.2501 78.5555 93.5159C78.2897 93.7818 78.0789 94.0975 77.9352 94.4449C77.7914 94.7923 77.7176 95.1647 77.718 95.5407C77.718 96.2998 78.0196 97.0277 78.5563 97.5645C79.0931 98.1013 79.8211 98.4028 80.5802 98.4028C81.3393 98.4028 82.0673 98.1013 82.6041 97.5645C83.1408 97.0277 83.4424 96.2998 83.4424 95.5407C83.4427 95.1647 83.369 94.7923 83.2253 94.4449C83.0815 94.0975 82.8707 93.7818 82.6049 93.5159C82.339 93.2501 82.0233 93.0393 81.6759 92.8956C81.3285 92.7519 80.9562 92.6781 80.5802 92.6785Z" fill="white"/>
<path d="M106.485 92.6755C104.905 92.6755 103.623 93.957 103.623 95.5377C103.623 97.1185 104.905 98.3999 106.485 98.3999C108.066 98.3999 109.348 97.1185 109.348 95.5377C109.348 93.957 108.066 92.6755 106.485 92.6755Z" fill="white"/>
<path d="M132.393 92.6755C130.812 92.6755 129.531 93.957 129.531 95.5377C129.531 97.1185 130.812 98.3999 132.393 98.3999C133.974 98.3999 135.255 97.1185 135.255 95.5377C135.255 93.957 133.974 92.6755 132.393 92.6755Z" fill="white"/>
</svg>
