<svg width="169" height="175" viewBox="0 0 169 175" fill="none" xmlns="http://www.w3.org/2000/svg">
<path d="M163.078 133.587C165.885 133.587 168.16 131.312 168.16 128.505C168.16 125.698 165.885 123.423 163.078 123.423C160.271 123.423 157.996 125.698 157.996 128.505C157.996 131.312 160.271 133.587 163.078 133.587Z" fill="white"/>
<path d="M117.08 133.587C118.428 133.587 119.721 133.052 120.674 132.099C121.627 131.146 122.162 129.853 122.162 128.505C122.162 127.157 121.627 125.865 120.674 124.912C119.721 123.958 118.428 123.423 117.08 123.423C116.413 123.422 115.752 123.553 115.135 123.809C114.518 124.064 113.957 124.438 113.485 124.91C113.013 125.382 112.639 125.943 112.384 126.56C112.129 127.176 111.998 127.838 111.998 128.505C111.998 129.173 112.129 129.834 112.384 130.451C112.639 131.068 113.013 131.628 113.485 132.1C113.957 132.572 114.518 132.947 115.135 133.202C115.752 133.457 116.413 133.588 117.08 133.587Z" fill="white"/>
<path d="M71.0825 133.587C73.8893 133.587 76.1647 131.312 76.1647 128.505C76.1647 125.698 73.8893 123.423 71.0825 123.423C68.2757 123.423 66.0004 125.698 66.0004 128.505C66.0004 131.312 68.2757 133.587 71.0825 133.587Z" fill="white"/>
<path d="M25.08 133.587C25.7475 133.588 26.4087 133.457 27.0256 133.202C27.6425 132.947 28.203 132.572 28.675 132.1C29.1471 131.628 29.5214 131.068 29.7766 130.451C30.0318 129.834 30.1628 129.173 30.1622 128.505C30.1628 127.838 30.0318 127.176 29.7766 126.56C29.5214 125.943 29.1471 125.382 28.675 124.91C28.203 124.438 27.6425 124.064 27.0256 123.809C26.4087 123.553 25.7475 123.422 25.08 123.423C24.4124 123.422 23.7513 123.553 23.1344 123.809C22.5175 124.064 21.9569 124.438 21.4849 124.91C21.0128 125.382 20.6385 125.943 20.3833 126.56C20.1282 127.176 19.9972 127.838 19.9978 128.505C19.9972 129.173 20.1282 129.834 20.3833 130.451C20.6385 131.068 21.0128 131.628 21.4849 132.1C21.9569 132.572 22.5175 132.947 23.1344 133.202C23.7513 133.457 24.4124 133.588 25.08 133.587Z" fill="white"/>
<path d="M163.078 92.448C165.885 92.448 168.16 90.1726 168.16 87.3658C168.16 84.559 165.885 82.2836 163.078 82.2836C160.271 82.2836 157.996 84.559 157.996 87.3658C157.996 90.1726 160.271 92.448 163.078 92.448Z" fill="white"/>
<path d="M117.08 92.448C118.428 92.4467 119.72 91.9108 120.673 90.958C121.625 90.0052 122.161 88.7133 122.162 87.3658C122.162 86.018 121.627 84.7254 120.674 83.7723C119.721 82.8192 118.428 82.2837 117.08 82.2837C116.413 82.2831 115.752 82.4141 115.135 82.6692C114.518 82.9244 113.957 83.2988 113.485 83.7708C113.013 84.2429 112.639 84.8033 112.384 85.4202C112.129 86.0371 111.998 86.6983 111.998 87.3658C111.998 88.7137 112.534 90.0063 113.487 90.9594C114.44 91.9125 115.732 92.448 117.08 92.448Z" fill="white"/>
<path d="M71.0825 92.448C73.8893 92.448 76.1647 90.1726 76.1647 87.3658C76.1647 84.559 73.8893 82.2836 71.0825 82.2836C68.2757 82.2836 66.0004 84.559 66.0004 87.3658C66.0004 90.1726 68.2757 92.448 71.0825 92.448Z" fill="white"/>
<path d="M25.08 92.448C26.4278 92.448 27.7205 91.9125 28.6736 90.9594C29.6267 90.0063 30.1622 88.7137 30.1622 87.3658C30.1628 86.6983 30.0318 86.0371 29.7766 85.4202C29.5214 84.8033 29.1471 84.2429 28.675 83.7708C28.203 83.2988 27.6425 82.9244 27.0256 82.6692C26.4087 82.4141 25.7475 82.2831 25.08 82.2837C24.4124 82.2831 23.7513 82.4141 23.1344 82.6692C22.5175 82.9244 21.9569 83.2988 21.4849 83.7708C21.0128 84.2429 20.6385 84.8033 20.3833 85.4202C20.1282 86.0371 19.9972 86.6983 19.9978 87.3658C19.9978 88.7137 20.5332 90.0063 21.4863 90.9594C22.4394 91.9125 23.7321 92.448 25.08 92.448Z" fill="white"/>
<path d="M163.078 51.3086C165.885 51.3086 168.16 49.0333 168.16 46.2264C168.16 43.4196 165.885 41.1443 163.078 41.1443C160.271 41.1443 157.996 43.4196 157.996 46.2264C157.996 49.0333 160.271 51.3086 163.078 51.3086Z" fill="white"/>
<path d="M117.08 51.3086C118.428 51.3073 119.72 50.7715 120.673 49.8187C121.625 48.8659 122.161 47.5739 122.162 46.2264C122.162 44.8786 121.627 43.5859 120.674 42.6329C119.721 41.6798 118.428 41.1443 117.08 41.1443C116.413 41.1436 115.752 41.2747 115.135 41.5298C114.518 41.785 113.957 42.1594 113.485 42.6314C113.013 43.1035 112.639 43.6639 112.384 44.2808C112.129 44.8977 111.998 45.5589 111.998 46.2264C111.998 47.5743 112.534 48.8671 113.487 49.8202C114.44 50.7732 115.732 51.3086 117.08 51.3086Z" fill="white"/>
<path d="M71.0825 51.3086C73.8893 51.3086 76.1647 49.0333 76.1647 46.2264C76.1647 43.4196 73.8893 41.1443 71.0825 41.1443C68.2757 41.1443 66.0004 43.4196 66.0004 46.2264C66.0004 49.0333 68.2757 51.3086 71.0825 51.3086Z" fill="white"/>
<path d="M25.08 51.3086C26.4278 51.3086 27.7205 50.7732 28.6736 49.8202C29.6267 48.8671 30.1622 47.5743 30.1622 46.2264C30.1628 45.5589 30.0318 44.8977 29.7766 44.2808C29.5214 43.6639 29.1471 43.1035 28.675 42.6314C28.203 42.1594 27.6425 41.785 27.0256 41.5298C26.4087 41.2747 25.7475 41.1436 25.08 41.1443C24.4124 41.1436 23.7513 41.2747 23.1344 41.5298C22.5175 41.785 21.9569 42.1594 21.4849 42.6314C21.0128 43.1035 20.6385 43.6639 20.3833 44.2808C20.1282 44.8977 19.9972 45.5589 19.9978 46.2264C19.9978 47.5743 20.5332 48.8671 21.4863 49.8202C22.4394 50.7732 23.7321 51.3086 25.08 51.3086Z" fill="white"/>
<path d="M163.078 10.1692C165.885 10.1692 168.16 7.89385 168.16 5.08704C168.16 2.28022 165.885 0.00485229 163.078 0.00485229C160.271 0.00485229 157.996 2.28022 157.996 5.08704C157.996 7.89385 160.271 10.1692 163.078 10.1692Z" fill="white"/>
<path d="M117.08 10.1643C118.428 10.1643 119.721 9.62896 120.674 8.67587C121.627 7.72277 122.162 6.43003 122.162 5.08216C122.161 3.73467 121.625 2.44281 120.673 1.48999C119.72 0.537176 118.428 0.00128884 117.08 0C115.732 0 114.44 0.53547 113.487 1.48856C112.534 2.44166 111.998 3.73428 111.998 5.08216C111.998 5.74974 112.129 6.41092 112.384 7.02781C112.639 7.64469 113.013 8.20524 113.485 8.67729C113.957 9.14934 114.518 9.52359 115.135 9.77877C115.752 10.0339 116.413 10.165 117.08 10.1643Z" fill="white"/>
<path d="M71.0825 10.1692C73.8893 10.1692 76.1647 7.89385 76.1647 5.08704C76.1647 2.28022 73.8893 0.00485229 71.0825 0.00485229C68.2757 0.00485229 66.0004 2.28022 66.0004 5.08704C66.0004 7.89385 68.2757 10.1692 71.0825 10.1692Z" fill="white"/>
<path d="M25.08 10.1643C25.7475 10.165 26.4087 10.0339 27.0256 9.77877C27.6425 9.52359 28.203 9.14934 28.675 8.67729C29.1471 8.20524 29.5214 7.64469 29.7766 7.02781C30.0318 6.41092 30.1628 5.74974 30.1622 5.08216C30.1622 3.73428 29.6267 2.44166 28.6736 1.48856C27.7205 0.53547 26.4278 0 25.08 0C23.7321 0 22.4394 0.53547 21.4863 1.48856C20.5332 2.44166 19.9978 3.73428 19.9978 5.08216C19.9972 5.74974 20.1282 6.41092 20.3833 7.02781C20.6385 7.64469 21.0128 8.20524 21.4849 8.67729C21.9569 9.14934 22.5175 9.52359 23.1344 9.77877C23.7513 10.0339 24.4124 10.165 25.08 10.1643Z" fill="white"/>
</svg>
