<svg width="175" height="40" viewBox="0 0 175 40" fill="none" xmlns="http://www.w3.org/2000/svg">
<mask id="mask0_119_2776" style="mask-type:alpha" maskUnits="userSpaceOnUse" x="0" y="0" width="175" height="40">
<rect width="175" height="39.0244" fill="#D9D9D9"/>
</mask>
<g mask="url(#mask0_119_2776)">
<path d="M165.989 34.2983C167.598 34.2983 168.902 32.994 168.902 31.3852C168.902 29.7764 167.598 28.4722 165.989 28.4722C164.38 28.4722 163.076 29.7764 163.076 31.3852C163.076 32.994 164.38 34.2983 165.989 34.2983Z" fill="#31A745"/>
<path d="M139.624 34.2952C140.397 34.2952 141.138 33.9883 141.684 33.442C142.23 32.8957 142.537 32.1547 142.537 31.3822C142.536 30.6098 142.229 29.8693 141.683 29.3231C141.137 28.777 140.396 28.4698 139.624 28.4691C138.851 28.4691 138.11 28.776 137.564 29.3223C137.018 29.8686 136.711 30.6096 136.711 31.3822C136.711 31.7648 136.786 32.1438 136.932 32.4974C137.078 32.851 137.293 33.1722 137.563 33.4428C137.834 33.7134 138.155 33.928 138.509 34.0742C138.862 34.2205 139.241 34.2956 139.624 34.2952Z" fill="#31A745"/>
<path d="M113.258 34.2983C114.867 34.2983 116.171 32.994 116.171 31.3852C116.171 29.7764 114.867 28.4722 113.258 28.4722C111.649 28.4722 110.345 29.7764 110.345 31.3852C110.345 32.994 111.649 34.2983 113.258 34.2983Z" fill="#31A745"/>
<path d="M86.8901 34.2952C87.2728 34.2956 87.6517 34.2205 88.0053 34.0742C88.3589 33.928 88.6802 33.7134 88.9508 33.4428C89.2213 33.1722 89.4359 32.851 89.5822 32.4974C89.7284 32.1438 89.8035 31.7648 89.8032 31.3822C89.8032 30.6096 89.4963 29.8686 88.9499 29.3223C88.4036 28.776 87.6627 28.4691 86.8901 28.4691C86.1175 28.4691 85.3766 28.776 84.8302 29.3223C84.2839 29.8686 83.9771 30.6096 83.9771 31.3822C83.9767 31.7648 84.0518 32.1438 84.198 32.4974C84.3443 32.851 84.5589 33.1722 84.8294 33.4428C85.1 33.7134 85.4213 33.928 85.7749 34.0742C86.1285 34.2205 86.5074 34.2956 86.8901 34.2952Z" fill="#31A745"/>
<path d="M60.5249 34.2983C62.1337 34.2983 63.4379 32.994 63.4379 31.3852C63.4379 29.7764 62.1337 28.4722 60.5249 28.4722C58.916 28.4722 57.6118 29.7764 57.6118 31.3852C57.6118 32.994 58.916 34.2983 60.5249 34.2983Z" fill="#31A745"/>
<path d="M34.1567 34.2983C35.7656 34.2983 37.0698 32.994 37.0698 31.3852C37.0698 29.7764 35.7656 28.4722 34.1567 28.4722C32.5479 28.4722 31.2437 29.7764 31.2437 31.3852C31.2437 32.994 32.5479 34.2983 34.1567 34.2983Z" fill="#31A745"/>
<path d="M7.79099 34.2983C9.39983 34.2983 10.7041 32.994 10.7041 31.3852C10.7041 29.7764 9.39983 28.4722 7.79099 28.4722C6.18215 28.4722 4.87793 29.7764 4.87793 31.3852C4.87793 32.994 6.18215 34.2983 7.79099 34.2983Z" fill="#31A745"/>
<path d="M165.989 10.7146C167.598 10.7146 168.902 9.41032 168.902 7.80148C168.902 6.19264 167.598 4.88844 165.989 4.88844C164.38 4.88844 163.076 6.19264 163.076 7.80148C163.076 9.41032 164.38 10.7146 165.989 10.7146Z" fill="#31A745"/>
<path d="M139.624 10.7145C140.397 10.7145 141.138 10.4076 141.684 9.86133C142.23 9.31502 142.537 8.57407 142.537 7.80148C142.536 7.02912 142.229 6.28861 141.683 5.74247C141.137 5.19632 140.396 4.88917 139.624 4.88844C138.851 4.88844 138.11 5.19535 137.564 5.74165C137.018 6.28796 136.711 7.02889 136.711 7.80148C136.711 8.18413 136.786 8.56312 136.932 8.91671C137.078 9.27031 137.293 9.59157 137.563 9.86215C137.834 10.1327 138.155 10.3473 138.509 10.4936C138.862 10.6398 139.241 10.7149 139.624 10.7145Z" fill="#31A745"/>
<path d="M113.258 10.7146C114.867 10.7146 116.171 9.41032 116.171 7.80148C116.171 6.19264 114.867 4.88844 113.258 4.88844C111.649 4.88844 110.345 6.19264 110.345 7.80148C110.345 9.41032 111.649 10.7146 113.258 10.7146Z" fill="#31A745"/>
<path d="M86.8901 10.7145C87.2728 10.7149 87.6517 10.6398 88.0053 10.4936C88.3589 10.3473 88.6802 10.1327 88.9508 9.86215C89.2213 9.59157 89.4359 9.27031 89.5822 8.91671C89.7284 8.56312 89.8035 8.18413 89.8032 7.80148C89.8032 7.02889 89.4963 6.28796 88.9499 5.74165C88.4036 5.19535 87.6627 4.88844 86.8901 4.88844C86.1175 4.88844 85.3766 5.19535 84.8302 5.74165C84.2839 6.28796 83.9771 7.02889 83.9771 7.80148C83.9767 8.18413 84.0518 8.56312 84.198 8.91671C84.3443 9.27031 84.5589 9.59157 84.8294 9.86215C85.1 10.1327 85.4213 10.3473 85.7749 10.4936C86.1285 10.6398 86.5074 10.7149 86.8901 10.7145Z" fill="#31A745"/>
<path d="M60.5249 10.7146C62.1337 10.7146 63.4379 9.41032 63.4379 7.80148C63.4379 6.19264 62.1337 4.88844 60.5249 4.88844C58.916 4.88844 57.6118 6.19264 57.6118 7.80148C57.6118 9.41032 58.916 10.7146 60.5249 10.7146Z" fill="#31A745"/>
<path d="M34.1567 10.7146C35.7656 10.7146 37.0698 9.41032 37.0698 7.80148C37.0698 6.19264 35.7656 4.88844 34.1567 4.88844C32.5479 4.88844 31.2437 6.19264 31.2437 7.80148C31.2437 9.41032 32.5479 10.7146 34.1567 10.7146Z" fill="#31A745"/>
<path d="M7.79099 10.7146C9.39983 10.7146 10.7041 9.41032 10.7041 7.80148C10.7041 6.19264 9.39983 4.88844 7.79099 4.88844C6.18215 4.88844 4.87793 6.19264 4.87793 7.80148C4.87793 9.41032 6.18215 10.7146 7.79099 10.7146Z" fill="#31A745"/>
</g>
</svg>
