<svg width="160" height="123" viewBox="0 0 160 123" fill="none" xmlns="http://www.w3.org/2000/svg">
<path d="M159.738 6.07727C159.738 2.72102 157.017 0.000239485 153.661 0.000239445C150.305 0.000239405 147.584 2.72102 147.584 6.07727C147.584 9.43352 150.305 12.1543 153.661 12.1543C157.017 12.1543 159.738 9.43352 159.738 6.07727Z" fill="white"/>
<path d="M159.738 61.0846C159.738 60.2863 159.582 59.4958 159.277 58.7581C158.971 58.0205 158.524 57.3503 157.959 56.7858C157.395 56.2213 156.725 55.7737 155.987 55.4686C155.249 55.1634 154.459 55.0068 153.661 55.0076C152.052 55.0122 150.512 55.6546 149.377 56.794C148.242 57.9333 147.605 59.4764 147.607 61.0846C147.607 62.6963 148.247 64.242 149.387 65.3817C150.526 66.5213 152.072 67.1616 153.684 67.1616C155.292 67.1555 156.831 66.5125 157.966 65.3735C159.101 64.2345 159.738 62.6923 159.738 61.0846Z" fill="white"/>
<path d="M159.738 116.087C159.738 112.73 157.017 110.01 153.661 110.01C150.305 110.01 147.584 112.73 147.584 116.087C147.584 119.443 150.305 122.164 153.661 122.164C157.017 122.164 159.738 119.443 159.738 116.087Z" fill="white"/>
<path d="M110.545 6.07727C110.545 2.72102 107.824 0.000239485 104.468 0.000239445C101.112 0.000239405 98.3907 2.72102 98.3907 6.07727C98.3907 9.43352 101.112 12.1543 104.468 12.1543C107.824 12.1543 110.545 9.43352 110.545 6.07727Z" fill="white"/>
<path d="M110.545 61.0846C110.545 59.4728 109.905 57.9272 108.765 56.7875C107.625 55.6478 106.08 55.0076 104.468 55.0076C103.67 55.0068 102.879 55.1634 102.141 55.4686C101.404 55.7737 100.733 56.2213 100.169 56.7858C99.6045 57.3503 99.1569 58.0205 98.8518 58.7581C98.5466 59.4958 98.39 60.2863 98.3907 61.0846C98.3907 62.6963 99.031 64.242 100.171 65.3817C101.31 66.5213 102.856 67.1616 104.468 67.1616C106.079 67.1601 107.624 66.5193 108.763 65.38C109.903 64.2406 110.543 62.6958 110.545 61.0846Z" fill="white"/>
<path d="M110.545 116.087C110.545 112.73 107.824 110.01 104.468 110.01C101.112 110.01 98.3907 112.73 98.3907 116.087C98.3907 119.443 101.112 122.164 104.468 122.164C107.824 122.164 110.545 119.443 110.545 116.087Z" fill="white"/>
<path d="M61.352 6.07727C61.352 2.72102 58.6313 0.000239485 55.275 0.000239445C51.9188 0.000239405 49.1979 2.72102 49.1979 6.07727C49.1979 9.43352 51.9188 12.1543 55.275 12.1543C58.6313 12.1543 61.352 9.43352 61.352 6.07727Z" fill="white"/>
<path d="M61.3519 61.0846C61.3519 60.2865 61.1948 59.4963 60.8894 58.759C60.584 58.0217 60.1363 57.3518 59.572 56.7875C59.0077 56.2232 58.3378 55.7755 57.6005 55.4701C56.8632 55.1647 56.073 55.0076 55.2749 55.0076C54.4766 55.0068 53.6861 55.1634 52.9484 55.4686C52.2108 55.7737 51.5405 56.2213 50.9761 56.7858C50.4116 57.3503 49.964 58.0205 49.6589 58.7581C49.3538 59.4958 49.1971 60.2863 49.1979 61.0846C49.1979 62.6963 49.8381 64.242 50.9778 65.3817C52.1175 66.5213 53.6632 67.1616 55.2749 67.1616C56.8862 67.1601 58.431 66.5193 59.5703 65.38C60.7097 64.2406 61.3504 62.6958 61.3519 61.0846Z" fill="white"/>
<path d="M61.352 116.087C61.352 112.73 58.6313 110.01 55.275 110.01C51.9188 110.01 49.1979 112.73 49.1979 116.087C49.1979 119.443 51.9188 122.164 55.275 122.164C58.6313 122.164 61.352 119.443 61.352 116.087Z" fill="white"/>
<path d="M12.16 6.07727C12.16 2.72102 9.43925 0.000239485 6.083 0.000239445C2.72675 0.000239405 0.00585949 2.72102 0.00585945 6.07727C0.00585941 9.43352 2.72675 12.1543 6.083 12.1543C9.43925 12.1543 12.16 9.43352 12.16 6.07727Z" fill="white"/>
<path d="M12.1599 61.0846C12.1599 60.286 12.0025 59.4954 11.6967 58.7577C11.391 58.02 10.9428 57.3498 10.3779 56.7854C9.81299 56.2211 9.14237 55.7736 8.4044 55.4685C7.66643 55.1634 6.87557 55.0068 6.07703 55.0076C4.4653 55.0076 2.91958 55.6478 1.77992 56.7875C0.640254 57.9272 9.16881e-08 59.4728 7.24683e-08 61.0846C0.00154119 62.6958 0.642293 64.2406 1.78162 65.38C2.92095 66.5193 4.46578 67.1601 6.07703 67.1616C7.6893 67.1616 9.23562 66.5215 10.3762 65.382C11.5168 64.2425 12.1583 62.6968 12.1599 61.0846Z" fill="white"/>
<path d="M12.16 116.087C12.16 112.73 9.43925 110.01 6.083 110.01C2.72675 110.01 0.00585949 112.73 0.00585945 116.087C0.00585941 119.443 2.72675 122.164 6.083 122.164C9.43925 122.164 12.16 119.443 12.16 116.087Z" fill="white"/>
</svg>
