<svg width="433" height="282" viewBox="0 0 433 282" fill="none" xmlns="http://www.w3.org/2000/svg">
<g opacity="0.5">
<path d="M0 24.051V11.5417L11.5417 0H24.051L0 24.051Z" fill="white"/>
<path d="M0 69.3004V56.791L56.791 0H69.3004L0 69.3004Z" fill="white"/>
<path d="M0 114.55V102.04L102.091 0H114.56L0 114.55Z" fill="white"/>
<path d="M0 159.809V147.29L147.34 0H159.849L0 159.809Z" fill="white"/>
<path d="M0 205.059V192.63L192.59 0H205.099L0 205.059Z" fill="white"/>
<path d="M0 250.389V237.879L237.849 0H250.358L0 250.389Z" fill="white"/>
<path d="M14.4648 281.183H1.95551L283.139 0H295.608L14.4648 281.183Z" fill="white"/>
<path d="M59.7141 281.183H47.2047L328.428 0H340.897L59.7141 281.183Z" fill="white"/>
<path d="M104.974 281.183H92.4542L373.678 0H386.197L104.974 281.183Z" fill="white"/>
<path d="M150.223 281.183H137.794L418.937 0H431.446L150.223 281.183Z" fill="white"/>
<path d="M195.553 281.183H183.044L433.352 30.835V43.3443L195.553 281.183Z" fill="white"/>
<path d="M240.812 281.184H228.293L433.352 76.125V88.594L240.812 281.184Z" fill="white"/>
<path d="M286.062 281.183H273.552L433.351 121.415V133.884L286.062 281.183Z" fill="white"/>
<path d="M331.311 281.183H318.802L433.352 166.673V179.183L331.311 281.183Z" fill="white"/>
<path d="M376.611 281.183H364.091L433.352 211.923V224.433L376.611 281.183Z" fill="white"/>
<path d="M421.86 281.184H409.351L433.351 257.173V269.692L421.86 281.184Z" fill="white"/>
</g>
</svg>
