<svg width="17" height="18" viewBox="0 0 17 18" fill="none" xmlns="http://www.w3.org/2000/svg">
<path d="M14.167 5.45834H2.83366C2.05126 5.45834 1.41699 6.09261 1.41699 6.87501V13.9583C1.41699 14.7407 2.05126 15.375 2.83366 15.375H14.167C14.9494 15.375 15.5837 14.7407 15.5837 13.9583V6.87501C15.5837 6.09261 14.9494 5.45834 14.167 5.45834Z" stroke="black" stroke-width="1.63462" stroke-linecap="round" stroke-linejoin="round"/>
<path d="M11.3337 15.375V4.04167C11.3337 3.66594 11.1844 3.30561 10.9187 3.03993C10.653 2.77426 10.2927 2.625 9.91699 2.625H7.08366C6.70794 2.625 6.3476 2.77426 6.08192 3.03993C5.81625 3.30561 5.66699 3.66594 5.66699 4.04167V15.375" stroke="black" stroke-width="1.63462" stroke-linecap="round" stroke-linejoin="round"/>
</svg>
