<svg width="325" height="249" viewBox="0 0 325 249" fill="none" xmlns="http://www.w3.org/2000/svg">
<path d="M324.92 12.964C324.92 6.15466 319.4 0.634573 312.59 0.634573C305.781 0.634573 300.261 6.15466 300.261 12.964C300.261 19.7734 305.781 25.2935 312.59 25.2935C319.4 25.2935 324.92 19.7734 324.92 12.964Z" fill="white"/>
<path d="M324.92 124.567C324.922 122.948 324.604 121.344 323.985 119.847C323.366 118.351 322.458 116.991 321.313 115.846C320.167 114.701 318.807 113.792 317.311 113.173C315.814 112.554 314.21 112.237 312.591 112.238C309.328 112.247 306.202 113.551 303.9 115.862C301.597 118.174 300.305 121.305 300.309 124.567C300.309 127.837 301.608 130.973 303.92 133.286C306.232 135.598 309.368 136.897 312.638 136.897C315.9 136.884 319.024 135.58 321.326 133.269C323.628 130.958 324.92 127.829 324.92 124.567Z" fill="white"/>
<path d="M324.92 236.158C324.92 229.349 319.4 223.829 312.59 223.829C305.781 223.829 300.261 229.349 300.261 236.158C300.261 242.968 305.781 248.488 312.59 248.488C319.4 248.488 324.92 242.968 324.92 236.158Z" fill="white"/>
<path d="M225.115 12.964C225.115 6.15466 219.595 0.634573 212.786 0.634573C205.976 0.634573 200.456 6.15466 200.456 12.964C200.456 19.7734 205.976 25.2935 212.786 25.2935C219.595 25.2935 225.115 19.7734 225.115 12.964Z" fill="white"/>
<path d="M225.115 124.567C225.115 121.297 223.816 118.162 221.504 115.849C219.191 113.537 216.055 112.238 212.786 112.238C211.166 112.237 209.562 112.554 208.065 113.173C206.569 113.792 205.209 114.701 204.064 115.846C202.919 116.991 202.01 118.351 201.391 119.847C200.772 121.344 200.455 122.948 200.456 124.567C200.456 127.837 201.755 130.973 204.067 133.286C206.379 135.598 209.516 136.897 212.786 136.897C216.055 136.894 219.189 135.594 221.5 133.282C223.812 130.971 225.112 127.836 225.115 124.567Z" fill="white"/>
<path d="M225.115 236.158C225.115 229.349 219.595 223.829 212.786 223.829C205.976 223.829 200.456 229.349 200.456 236.158C200.456 242.968 205.976 248.488 212.786 248.488C219.595 248.488 225.115 242.968 225.115 236.158Z" fill="white"/>
<path d="M125.309 12.964C125.309 6.15466 119.789 0.634573 112.98 0.634573C106.171 0.634573 100.65 6.15466 100.65 12.964C100.65 19.7734 106.171 25.2935 112.98 25.2935C119.789 25.2935 125.309 19.7734 125.309 12.964Z" fill="white"/>
<path d="M125.309 124.567C125.309 122.948 124.99 121.345 124.371 119.849C123.751 118.353 122.843 116.994 121.698 115.849C120.553 114.704 119.194 113.796 117.698 113.177C116.202 112.557 114.599 112.238 112.98 112.238C111.36 112.237 109.756 112.554 108.26 113.173C106.763 113.792 105.403 114.701 104.258 115.846C103.113 116.991 102.205 118.351 101.586 119.847C100.967 121.344 100.649 122.948 100.65 124.567C100.65 127.837 101.949 130.973 104.262 133.286C106.574 135.598 109.71 136.897 112.98 136.897C116.249 136.894 119.383 135.594 121.695 133.282C124.006 130.971 125.306 127.836 125.309 124.567Z" fill="white"/>
<path d="M125.309 236.158C125.309 229.349 119.789 223.829 112.98 223.829C106.171 223.829 100.65 229.349 100.65 236.158C100.65 242.968 106.171 248.488 112.98 248.488C119.789 248.488 125.309 242.968 125.309 236.158Z" fill="white"/>
<path d="M25.5057 12.964C25.5057 6.15466 19.9857 0.634573 13.1763 0.634573C6.36698 0.634573 0.84668 6.15466 0.84668 12.964C0.84668 19.7734 6.36698 25.2935 13.1763 25.2935C19.9857 25.2935 25.5057 19.7734 25.5057 12.964Z" fill="white"/>
<path d="M25.5057 124.567C25.5057 122.947 25.1864 121.343 24.566 119.847C23.9457 118.35 23.0364 116.99 21.8903 115.845C20.7442 114.7 19.3836 113.792 17.8863 113.173C16.3891 112.554 14.7845 112.237 13.1644 112.238C9.89444 112.238 6.75839 113.537 4.44617 115.849C2.13395 118.162 0.834961 121.297 0.834961 124.567C0.838088 127.836 2.13808 130.971 4.44963 133.282C6.76117 135.594 9.8954 136.894 13.1644 136.897C16.4355 136.897 19.5727 135.598 21.8868 133.286C24.2009 130.975 25.5026 127.839 25.5057 124.567Z" fill="white"/>
<path d="M25.5057 236.158C25.5057 229.349 19.9857 223.829 13.1763 223.829C6.36698 223.829 0.84668 229.349 0.84668 236.158C0.84668 242.968 6.36698 248.488 13.1763 248.488C19.9857 248.488 25.5057 242.968 25.5057 236.158Z" fill="white"/>
</svg>
