<svg width="83" height="69" viewBox="0 0 83 69" fill="none" xmlns="http://www.w3.org/2000/svg">
<g clip-path="url(#clip0_112_1787)">
<path d="M38.086 68.212H28.6316C21.2958 68.206 14.262 65.2897 9.07413 60.1032C3.88623 54.9167 0.968011 47.8838 0.959961 40.548V27.3164C0.959961 26.9133 1.1201 26.5266 1.40516 26.2416C1.69021 25.9565 2.07683 25.7964 2.47996 25.7964H64.23C64.6331 25.7964 65.0197 25.9565 65.3048 26.2416C65.5898 26.5266 65.75 26.9133 65.75 27.3164V40.5252C65.7479 47.8636 62.8334 54.9012 57.6465 60.0924C52.4596 65.2836 45.4244 68.2039 38.086 68.212ZM3.99996 28.8364V40.5252C4.00801 47.0547 6.60594 53.3144 11.2237 57.9308C15.8415 62.5472 22.102 65.1432 28.6316 65.1492H38.086C44.6148 65.1432 50.8745 62.5469 55.4911 57.9303C60.1077 53.3137 62.7039 47.054 62.71 40.5252V28.8364H3.99996Z" fill="#31A745"/>
<path d="M14.944 54.6767C12.8688 53.0912 11.1886 51.0471 10.0349 48.7041C8.88126 46.3612 8.28542 43.7831 8.29404 41.1715V37.0371H11.334V41.1715C11.3272 43.3172 11.8169 45.4354 12.7649 47.3604C13.7129 49.2853 15.0934 50.9648 16.7984 52.2675L14.944 54.6767Z" fill="#31A745"/>
<path d="M19.0024 57.0172C18.1305 56.6699 17.289 56.2505 16.4868 55.7632L18.0676 53.1641C18.7274 53.5643 19.4188 53.9099 20.1348 54.1977L19.0024 57.0172Z" fill="#31A745"/>
<path d="M63.842 65.1724H2.86719V68.2124H63.842V65.1724Z" fill="#31A745"/>
<path d="M59.6092 57.1236L59.3052 54.0836C59.5028 54.0836 79.4984 51.8796 79.4984 40.5936C79.4984 36.254 78.8524 33.6168 77.454 32.3096C76.276 31.1924 74.262 30.7896 71.1308 30.9416C66.776 31.2076 65.75 38.5948 65.7424 38.6708L62.7024 38.2984C62.748 37.8956 64.002 28.3196 70.9256 27.9092C75.0068 27.666 77.6592 28.3424 79.5212 30.0904C81.5884 32.0436 82.5156 35.2888 82.5156 40.5936C82.5384 54.6764 60.544 57.0248 59.6092 57.1236Z" fill="#31A745"/>
<path d="M64.2303 32.4771H37.1211V35.5171H64.2303V32.4771Z" fill="#31A745"/>
<path d="M20.2486 22.1257C20.2486 22.0421 20.0434 13.5832 18.4398 9.33485C16.7526 4.82805 19.9598 1.28644 21.8902 0.0400391L23.5394 2.59365L22.711 1.31686L23.547 2.58604C23.4026 2.68484 20.0434 4.94204 21.267 8.26324C23.0454 13.0056 23.2582 21.6848 23.2658 22.0572L20.2486 22.1257Z" fill="#31A745"/>
<path d="M32.5079 22.1257C32.5079 22.0421 32.2951 13.5832 30.6991 9.33485C29.0119 4.82805 32.2191 1.28644 34.1495 0.0400391L35.7987 2.58604C35.6619 2.68484 32.3027 4.94204 33.5187 8.26324C35.2971 13.0056 35.5099 21.6848 35.5175 22.0572L32.5079 22.1257Z" fill="#31A745"/>
<path d="M44.7667 22.1257C44.7667 22.0421 44.5539 13.5832 42.9579 9.33485C41.2707 4.82805 44.4779 1.28644 46.4083 0.0400391L48.0575 2.58604C47.9131 2.68484 44.5615 4.94204 45.7775 8.26324C47.5559 13.0056 47.7687 21.6848 47.7763 22.0572L44.7667 22.1257Z" fill="#31A745"/>
</g>
<defs>
<clipPath id="clip0_112_1787">
<rect width="81.5784" height="68.172" fill="white" transform="translate(0.959961 0.0400391)"/>
</clipPath>
</defs>
</svg>
