<svg width="28" height="28" viewBox="0 0 28 28" fill="none" xmlns="http://www.w3.org/2000/svg">
<path d="M26.9491 18.1982C26.6954 18.1982 26.4503 18.2901 26.2591 18.4568C26.0679 18.6236 25.9435 18.8539 25.909 19.1053L25.8992 19.2481V24.1504L25.8908 24.3296C25.8498 24.7299 25.672 25.1039 25.3874 25.3884C25.1029 25.673 24.7289 25.8508 24.3286 25.8918L24.1494 25.9002H19.2499L19.1071 25.91C18.8558 25.9446 18.6255 26.069 18.4589 26.2602C18.2922 26.4514 18.2003 26.6964 18.2003 26.9501C18.2003 27.2038 18.2922 27.4488 18.4589 27.64C18.6255 27.8312 18.8558 27.9556 19.1071 27.9902L19.2499 28H24.1494L24.3846 27.993C25.321 27.9359 26.2043 27.5388 26.8686 26.8763C27.5329 26.2138 27.9324 25.3316 27.992 24.3954L27.999 24.1504V19.2481L27.9892 19.1053C27.9547 18.8539 27.8304 18.6236 27.6392 18.4568C27.448 18.2901 27.2028 18.1982 26.9491 18.1982ZM1.05172 18.1982C0.79801 18.1982 0.552889 18.2901 0.361683 18.4568C0.170479 18.6236 0.0461254 18.8539 0.0116215 19.1053L0.00182343 19.2481V24.1504C0.00179672 25.1309 0.375931 26.0745 1.04788 26.7886C1.71983 27.5027 2.63894 27.9335 3.61766 27.993L3.85144 28H8.75095C9.01695 27.9999 9.27301 27.8989 9.46738 27.7173C9.66176 27.5357 9.77995 27.2871 9.79808 27.0217C9.81621 26.7563 9.73293 26.4939 9.56506 26.2876C9.39719 26.0812 9.15726 25.9463 8.89373 25.91L8.75095 25.9002H3.85144C3.41848 25.9001 3.00095 25.7394 2.67956 25.4493C2.35817 25.1592 2.15575 24.7602 2.11141 24.3296L2.10161 24.1504V19.2481C2.10161 18.9696 1.991 18.7026 1.79411 18.5057C1.59721 18.3088 1.33017 18.1982 1.05172 18.1982ZM13.6393 18.8981C13.3733 18.8982 13.1172 18.9992 12.9228 19.1808C12.7285 19.3624 12.6103 19.6111 12.5921 19.8764C12.574 20.1418 12.6573 20.4042 12.8251 20.6106C12.993 20.8169 13.2329 20.9518 13.4965 20.9881L13.6393 20.9979H19.9456C20.2116 20.9978 20.4677 20.8968 20.6621 20.7152C20.8564 20.5336 20.9746 20.285 20.9928 20.0196C21.0109 19.7542 20.9276 19.4918 20.7597 19.2855C20.5919 19.0791 20.3519 18.9442 20.0884 18.9079L19.9456 18.8981H13.6393ZM8.04682 12.9487C7.78081 12.9488 7.52475 13.0498 7.33038 13.2314C7.13601 13.413 7.01782 13.6617 6.99969 13.927C6.98156 14.1924 7.06484 14.4548 7.2327 14.6612C7.40057 14.8675 7.64051 15.0024 7.90403 15.0387L8.04682 15.0485H19.9456C20.2116 15.0484 20.4677 14.9474 20.6621 14.7658C20.8564 14.5842 20.9746 14.3355 20.9928 14.0702C21.0109 13.8048 20.9276 13.5424 20.7597 13.336C20.5919 13.1297 20.3519 12.9948 20.0884 12.9585L19.9456 12.9487H8.04682ZM19.2499 0C18.9839 8.15315e-05 18.7278 0.101132 18.5335 0.282734C18.3391 0.464335 18.2209 0.712946 18.2028 0.978334C18.1846 1.24372 18.2679 1.5061 18.4358 1.71245C18.6037 1.9188 18.8436 2.05373 19.1071 2.08999L19.2499 2.09979H24.1494C24.5826 2.09959 25.0005 2.26009 25.3222 2.55023C25.6438 2.84036 25.8465 3.23951 25.8908 3.67043L25.8992 3.84961V8.75192C25.8993 9.01793 26.0004 9.27399 26.182 9.46836C26.3636 9.66273 26.6122 9.78092 26.8776 9.79906C27.143 9.81719 27.4053 9.7339 27.6117 9.56604C27.818 9.39817 27.953 9.15823 27.9892 8.89471L27.999 8.75192V3.84961C27.9991 2.86931 27.6251 1.92592 26.9535 1.21186C26.2818 0.497807 25.3631 0.0668871 24.3846 0.00699946L24.1494 0H19.2499ZM3.85144 0L3.61766 0.00699946C2.68125 0.0641182 1.79793 0.461216 1.13366 1.12368C0.469385 1.78615 0.0698891 2.66839 0.0102234 3.60464L0.00182343 3.84961V8.75192L0.0116215 8.89471C0.0461979 9.146 0.170582 9.37628 0.361778 9.54297C0.552977 9.70966 0.798059 9.8015 1.05172 9.8015C1.30538 9.8015 1.55046 9.70966 1.74166 9.54297C1.93285 9.37628 2.05724 9.146 2.09181 8.89471L2.10161 8.75192V3.84961L2.11141 3.67043C2.1524 3.27031 2.32998 2.89652 2.61426 2.61199C2.89854 2.32745 3.27217 2.14953 3.67226 2.10819L3.85144 2.09979H8.75095L8.89373 2.08999C9.14502 2.05542 9.3753 1.93103 9.54199 1.73983C9.70869 1.54864 9.80052 1.30355 9.80052 1.04989C9.80052 0.796236 9.70869 0.551154 9.54199 0.359956C9.3753 0.168758 9.14502 0.0443744 8.89373 0.00979898L8.75095 0H3.85144ZM8.04682 6.9993C7.78081 6.99938 7.52475 7.10043 7.33038 7.28203C7.13601 7.46363 7.01782 7.71225 6.99969 7.97763C6.98156 8.24302 7.06484 8.5054 7.2327 8.71175C7.40057 8.9181 7.64051 9.05303 7.90403 9.08929L8.04682 9.09909H19.9456C20.2116 9.09901 20.4677 8.99796 20.6621 8.81636C20.8564 8.63475 20.9746 8.38614 20.9928 8.12076C21.0109 7.85537 20.9276 7.59299 20.7597 7.38664C20.5919 7.18029 20.3519 7.04536 20.0884 7.0091L19.9456 6.9993H8.04682Z" fill="white"/>
</svg>
