<svg width="26" height="26" viewBox="0 0 26 26" fill="none" xmlns="http://www.w3.org/2000/svg">
<path d="M8.66667 8.66675H5.95833C4.46333 8.66675 3.25 9.79884 3.25 11.1942V13.7227C3.25 15.118 4.46333 16.2501 5.95833 16.2501H8.66667M21.5767 5.41675H9.83992C9.68627 5.41633 9.53404 5.44617 9.39193 5.50457C9.24981 5.56297 9.12059 5.6488 9.01165 5.75714C8.9027 5.86548 8.81616 5.99422 8.75697 6.13601C8.69778 6.2778 8.66709 6.42986 8.66667 6.5835V15.9164C8.66667 18.4948 10.7683 20.5834 13.3607 20.5834H18.0559C20.6483 20.5834 22.75 18.4937 22.75 15.9164V6.5835C22.7496 6.42986 22.7189 6.2778 22.6597 6.13601C22.6005 5.99422 22.514 5.86548 22.405 5.75714C22.2961 5.6488 22.1669 5.56297 22.0247 5.50457C21.8826 5.44617 21.7304 5.41633 21.5767 5.41675V5.41675Z" stroke="#31A745" stroke-width="2" stroke-linecap="round" stroke-linejoin="round"/>
</svg>
