<svg width="190" height="165" viewBox="0 0 190 165" fill="none" xmlns="http://www.w3.org/2000/svg">
<path d="M185.223 164.249C187.861 164.249 190 162.11 190 159.472C190 156.833 187.861 154.694 185.223 154.694C182.584 154.694 180.445 156.833 180.445 159.472C180.445 162.11 182.584 164.249 185.223 164.249Z" fill="white"/>
<path d="M141.983 164.244C143.25 164.244 144.466 163.741 145.361 162.845C146.257 161.949 146.761 160.734 146.761 159.467C146.759 158.2 146.256 156.986 145.36 156.09C144.464 155.194 143.25 154.691 141.983 154.689C140.716 154.689 139.501 155.193 138.605 156.089C137.709 156.985 137.206 158.2 137.206 159.467C137.205 160.094 137.328 160.716 137.568 161.296C137.808 161.876 138.16 162.403 138.604 162.846C139.048 163.29 139.574 163.642 140.154 163.882C140.734 164.122 141.356 164.245 141.983 164.244Z" fill="white"/>
<path d="M98.7438 164.249C101.382 164.249 103.521 162.11 103.521 159.472C103.521 156.833 101.382 154.694 98.7438 154.694C96.1053 154.694 93.9664 156.833 93.9664 159.472C93.9664 162.11 96.1053 164.249 98.7438 164.249Z" fill="white"/>
<path d="M55.5001 164.244C56.1276 164.245 56.7491 164.122 57.329 163.882C57.9089 163.642 58.4358 163.29 58.8795 162.846C59.3233 162.403 59.6752 161.876 59.915 161.296C60.1549 160.716 60.2781 160.094 60.2775 159.467C60.2775 158.2 59.7741 156.985 58.8782 156.089C57.9823 155.193 56.7671 154.689 55.5001 154.689C54.233 154.689 53.0178 155.193 52.1219 156.089C51.226 156.985 50.7227 158.2 50.7227 159.467C50.7221 160.094 50.8452 160.716 51.0851 161.296C51.325 161.876 51.6768 162.403 52.1206 162.846C52.5643 163.29 53.0912 163.642 53.6711 163.882C54.251 164.122 54.8725 164.245 55.5001 164.244Z" fill="white"/>
<path d="M12.2607 164.249C14.8992 164.249 17.0381 162.11 17.0381 159.472C17.0381 156.833 14.8992 154.694 12.2607 154.694C9.6222 154.694 7.48328 156.833 7.48328 159.472C7.48328 162.11 9.6222 164.249 12.2607 164.249Z" fill="white"/>
<path d="M185.223 125.572C187.861 125.572 190 123.433 190 120.794C190 118.156 187.861 116.017 185.223 116.017C182.584 116.017 180.445 118.156 180.445 120.794C180.445 123.433 182.584 125.572 185.223 125.572Z" fill="white"/>
<path d="M141.983 125.572C143.25 125.572 144.466 125.069 145.361 124.173C146.257 123.277 146.761 122.062 146.761 120.794C146.759 119.528 146.256 118.313 145.36 117.418C144.464 116.522 143.25 116.018 141.983 116.017C140.716 116.017 139.501 116.52 138.605 117.416C137.709 118.312 137.206 119.527 137.206 120.794C137.205 121.422 137.328 122.044 137.568 122.623C137.808 123.203 138.16 123.73 138.604 124.174C139.048 124.618 139.574 124.97 140.154 125.209C140.734 125.449 141.356 125.573 141.983 125.572Z" fill="white"/>
<path d="M98.7438 125.572C101.382 125.572 103.521 123.433 103.521 120.794C103.521 118.156 101.382 116.017 98.7438 116.017C96.1053 116.017 93.9664 118.156 93.9664 120.794C93.9664 123.433 96.1053 125.572 98.7438 125.572Z" fill="white"/>
<path d="M55.5001 125.572C56.1276 125.573 56.7491 125.449 57.329 125.209C57.9089 124.97 58.4358 124.618 58.8795 124.174C59.3233 123.73 59.6752 123.203 59.915 122.623C60.1549 122.044 60.2781 121.422 60.2775 120.794C60.2775 119.527 59.7741 118.312 58.8782 117.416C57.9823 116.52 56.7671 116.017 55.5001 116.017C54.233 116.017 53.0178 116.52 52.1219 117.416C51.226 118.312 50.7227 119.527 50.7227 120.794C50.7221 121.422 50.8452 122.044 51.0851 122.623C51.325 123.203 51.6768 123.73 52.1206 124.174C52.5643 124.618 53.0912 124.97 53.6711 125.209C54.251 125.449 54.8725 125.573 55.5001 125.572Z" fill="white"/>
<path d="M12.2607 125.572C14.8992 125.572 17.0381 123.433 17.0381 120.794C17.0381 118.156 14.8992 116.017 12.2607 116.017C9.6222 116.017 7.48328 118.156 7.48328 120.794C7.48328 123.433 9.6222 125.572 12.2607 125.572Z" fill="white"/>
<path d="M185.223 86.8996C187.861 86.8996 190 84.7606 190 82.1221C190 79.4836 187.861 77.3447 185.223 77.3447C182.584 77.3447 180.445 79.4836 180.445 82.1221C180.445 84.7606 182.584 86.8996 185.223 86.8996Z" fill="white"/>
<path d="M141.983 86.8996C143.25 86.8996 144.466 86.3962 145.361 85.5003C146.257 84.6043 146.761 83.3892 146.761 82.1221C146.761 81.4947 146.637 80.8736 146.397 80.2939C146.157 79.7143 145.805 79.1876 145.361 78.744C144.918 78.3003 144.391 77.9485 143.811 77.7084C143.232 77.4683 142.611 77.3447 141.983 77.3447C141.356 77.3441 140.734 77.4673 140.154 77.7072C139.574 77.947 139.048 78.2989 138.604 78.7426C138.16 79.1864 137.808 79.7133 137.568 80.2932C137.328 80.8731 137.205 81.4946 137.206 82.1221C137.205 82.7497 137.328 83.3712 137.568 83.9511C137.808 84.531 138.16 85.0579 138.604 85.5016C139.048 85.9454 139.574 86.2973 140.154 86.5372C140.734 86.777 141.356 86.9002 141.983 86.8996Z" fill="white"/>
<path d="M98.7438 86.8996C101.382 86.8996 103.521 84.7606 103.521 82.1221C103.521 79.4836 101.382 77.3447 98.7438 77.3447C96.1053 77.3447 93.9664 79.4836 93.9664 82.1221C93.9664 84.7606 96.1053 86.8996 98.7438 86.8996Z" fill="white"/>
<path d="M55.5001 86.8996C56.1276 86.9002 56.7491 86.777 57.329 86.5372C57.9089 86.2973 58.4358 85.9454 58.8795 85.5016C59.3233 85.0579 59.6752 84.531 59.915 83.9511C60.1549 83.3712 60.2781 82.7497 60.2775 82.1221C60.2781 81.4946 60.1549 80.8731 59.915 80.2932C59.6752 79.7133 59.3233 79.1864 58.8795 78.7426C58.4358 78.2989 57.9089 77.947 57.329 77.7072C56.7491 77.4673 56.1276 77.3441 55.5001 77.3447C54.8725 77.3441 54.251 77.4673 53.6711 77.7072C53.0912 77.947 52.5643 78.2989 52.1206 78.7426C51.6768 79.1864 51.325 79.7133 51.0851 80.2932C50.8452 80.8731 50.7221 81.4946 50.7227 82.1221C50.7221 82.7497 50.8452 83.3712 51.0851 83.9511C51.325 84.531 51.6768 85.0579 52.1206 85.5016C52.5643 85.9454 53.0912 86.2973 53.6711 86.5372C54.251 86.777 54.8725 86.9002 55.5001 86.8996Z" fill="white"/>
<path d="M12.2607 86.8996C14.8992 86.8996 17.0381 84.7606 17.0381 82.1221C17.0381 79.4836 14.8992 77.3447 12.2607 77.3447C9.6222 77.3447 7.48328 79.4836 7.48328 82.1221C7.48328 84.7606 9.6222 86.8996 12.2607 86.8996Z" fill="white"/>
<path d="M185.223 48.2273C187.861 48.2273 190 46.0883 190 43.4498C190 40.8113 187.861 38.6724 185.223 38.6724C182.584 38.6724 180.445 40.8113 180.445 43.4498C180.445 46.0883 182.584 48.2273 185.223 48.2273Z" fill="white"/>
<path d="M141.983 48.2272C143.25 48.226 144.464 47.7223 145.36 46.8266C146.256 45.9309 146.759 44.7164 146.761 43.4498C146.761 42.1827 146.257 40.9676 145.361 40.0716C144.466 39.1757 143.25 38.6724 141.983 38.6724C141.356 38.6718 140.734 38.7949 140.154 39.0348C139.574 39.2747 139.048 39.6265 138.604 40.0703C138.16 40.514 137.808 41.0409 137.568 41.6208C137.328 42.2007 137.205 42.8222 137.206 43.4498C137.206 44.7168 137.709 45.932 138.605 46.8279C139.501 47.7239 140.716 48.2272 141.983 48.2272Z" fill="white"/>
<path d="M98.7438 48.2273C101.382 48.2273 103.521 46.0883 103.521 43.4498C103.521 40.8113 101.382 38.6724 98.7438 38.6724C96.1053 38.6724 93.9664 40.8113 93.9664 43.4498C93.9664 46.0883 96.1053 48.2273 98.7438 48.2273Z" fill="white"/>
<path d="M55.5001 48.2272C56.7671 48.2272 57.9823 47.7239 58.8782 46.8279C59.7741 45.932 60.2775 44.7168 60.2775 43.4498C60.2781 42.8222 60.1549 42.2007 59.915 41.6208C59.6752 41.0409 59.3233 40.514 58.8795 40.0703C58.4358 39.6265 57.9089 39.2747 57.329 39.0348C56.7491 38.7949 56.1276 38.6718 55.5001 38.6724C54.8725 38.6718 54.251 38.7949 53.6711 39.0348C53.0912 39.2747 52.5643 39.6265 52.1206 40.0703C51.6768 40.514 51.325 41.0409 51.0851 41.6208C50.8452 42.2007 50.7221 42.8222 50.7227 43.4498C50.7227 44.7168 51.226 45.932 52.1219 46.8279C53.0178 47.7239 54.233 48.2272 55.5001 48.2272Z" fill="white"/>
<path d="M12.2607 48.2273C14.8992 48.2273 17.0381 46.0883 17.0381 43.4498C17.0381 40.8113 14.8992 38.6724 12.2607 38.6724C9.6222 38.6724 7.48328 40.8113 7.48328 43.4498C7.48328 46.0883 9.6222 48.2273 12.2607 48.2273Z" fill="white"/>
<path d="M185.223 9.5549C187.861 9.5549 190 7.41589 190 4.7774C190 2.1389 187.861 0 185.223 0C182.584 0 180.445 2.1389 180.445 4.7774C180.445 7.41589 182.584 9.5549 185.223 9.5549Z" fill="white"/>
<path d="M141.983 9.55485C143.25 9.55364 144.464 9.04989 145.36 8.15421C146.256 7.25853 146.759 6.04408 146.761 4.7774C146.761 3.51035 146.257 2.29524 145.361 1.3993C144.466 0.503362 143.25 2.19623e-06 141.983 2.19623e-06C141.356 -0.00059977 140.734 0.122549 140.154 0.362424C139.574 0.602299 139.048 0.954217 138.604 1.39796C138.16 1.84171 137.808 2.36858 137.568 2.94848C137.328 3.52837 137.205 4.14985 137.206 4.7774C137.206 6.04445 137.709 7.25961 138.605 8.15555C139.501 9.05149 140.716 9.55485 141.983 9.55485Z" fill="white"/>
<path d="M98.7438 9.5549C101.382 9.5549 103.521 7.41589 103.521 4.7774C103.521 2.1389 101.382 0 98.7438 0C96.1053 0 93.9664 2.1389 93.9664 4.7774C93.9664 7.41589 96.1053 9.5549 98.7438 9.5549Z" fill="white"/>
<path d="M55.5001 9.55485C56.7671 9.55485 57.9823 9.05149 58.8782 8.15555C59.7741 7.25961 60.2775 6.04445 60.2775 4.7774C60.2781 4.14985 60.1549 3.52837 59.915 2.94848C59.6752 2.36858 59.3233 1.84171 58.8795 1.39796C58.4358 0.954217 57.9089 0.602299 57.329 0.362424C56.7491 0.122549 56.1276 -0.00059977 55.5001 2.19623e-06C54.8725 -0.00059977 54.251 0.122549 53.6711 0.362424C53.0912 0.602299 52.5643 0.954217 52.1206 1.39796C51.6768 1.84171 51.325 2.36858 51.0851 2.94848C50.8452 3.52837 50.7221 4.14985 50.7227 4.7774C50.7227 6.04445 51.226 7.25961 52.1219 8.15555C53.0178 9.05149 54.233 9.55485 55.5001 9.55485Z" fill="white"/>
<path d="M12.2607 9.5549C14.8992 9.5549 17.0381 7.41589 17.0381 4.7774C17.0381 2.1389 14.8992 0 12.2607 0C9.6222 0 7.48328 2.1389 7.48328 4.7774C7.48328 7.41589 9.6222 9.5549 12.2607 9.5549Z" fill="white"/>
</svg>
