<svg width="201" height="215" viewBox="0 0 201 215" fill="none" xmlns="http://www.w3.org/2000/svg">
<g opacity="0.5">
<path d="M0 18.315V8.7891L8.78905 0H18.315L0 18.315Z" fill="white"/>
<path d="M0 52.7727V43.2468L43.2467 0H52.7727L0 52.7727Z" fill="white"/>
<path d="M0 87.238V77.7044L77.7428 0H87.238L0 87.238Z" fill="white"/>
<path d="M0 121.696V112.17L112.2 0H121.726L0 121.696Z" fill="white"/>
<path d="M0 156.153V146.689L146.658 0H156.184L0 156.153Z" fill="white"/>
<path d="M0 190.68V181.146L181.123 0H190.649L0 190.68Z" fill="white"/>
<path d="M11.015 214.123H1.48907L215.612 0H225.107L11.015 214.123Z" fill="white"/>
<path d="M45.4727 214.123H35.9467L250.1 0H259.595L45.4727 214.123Z" fill="white"/>
<path d="M79.9381 214.123H70.4045L284.558 0H294.092L79.9381 214.123Z" fill="white"/>
<path d="M114.396 214.123H104.931L319.023 0H328.549L114.396 214.123Z" fill="white"/>
<path d="M148.915 214.123H139.389L330 23.4808V33.0067L148.915 214.123Z" fill="white"/>
<path d="M183.38 214.123H173.847L330 57.9694V67.4723L183.38 214.123Z" fill="white"/>
</g>
</svg>
