<svg width="94" height="26" viewBox="0 0 94 26" fill="none" xmlns="http://www.w3.org/2000/svg">
<path d="M33.9917 4.61629L42.0151 12.6431L33.9917 20.6665L38.6045 25.2828L46.6314 17.2559L54.6547 25.2828L59.271 20.6665L51.2476 12.6431L59.271 4.61629L54.6547 0L46.6314 8.02683L38.6045 0L33.9917 4.61629Z" fill="white"/>
<path d="M4.61284 0L0 4.61629L8.02338 12.6431L0 20.6665L4.61284 25.2828L12.6397 17.2559L20.663 25.2828L25.2793 20.6665L17.2525 12.6431L25.2793 4.61629L20.663 0L12.6397 8.02683L4.61284 0Z" fill="white"/>
<path d="M67.9834 4.61629L76.0068 12.6431L67.9834 20.6665L72.5962 25.2828L80.6231 17.2559L88.6499 25.2828L93.2627 20.6665L85.2393 12.6431L93.2627 4.61629L88.6499 0L80.6231 8.02683L72.5962 0L67.9834 4.61629Z" fill="white"/>
</svg>
